<svg width="932" height="291" viewBox="0 0 932 291" fill="none" xmlns="http://www.w3.org/2000/svg">
<path d="M466.046 4.41554e-06C583.425 0.0231198 703.834 22.7456 803.519 86.1512C849.208 115.207 891.418 155.243 915.852 204.294C925.345 223.341 932.268 245.347 931.992 266.544C931.796 282.262 923.525 290.861 907.73 290.908C881.027 291 733.783 291.023 466 290.977C198.216 290.931 50.9689 290.857 24.2574 290.757C8.4747 290.699 0.203186 282.101 0.00734221 266.382C-0.257623 245.185 6.67754 223.179 16.1702 204.144C40.6276 155.093 82.8491 115.08 128.55 86.0356C228.246 22.6647 348.678 -0.0115533 466.046 4.41554e-06Z" fill="#F4823D"/>
</svg>
