<svg width="41" height="45" viewBox="0 0 41 45" fill="none" xmlns="http://www.w3.org/2000/svg">
<path d="M20.3914 1.92571e-07C25.5272 0.0010083 30.7956 0.991983 35.1572 3.75723C37.1563 5.02443 39.0032 6.77048 40.0723 8.9097C40.4876 9.74038 40.7906 10.7001 40.7785 11.6245C40.7699 12.3101 40.408 12.6851 39.7169 12.6871C38.5485 12.6911 32.106 12.6921 20.3894 12.6901C8.67277 12.6881 2.2301 12.6849 1.06136 12.6805C0.370803 12.678 0.00889021 12.303 0.000321252 11.6175C-0.011272 10.693 0.29217 9.73332 0.707512 8.90314C1.77762 6.76393 3.62499 5.01889 5.62458 3.75219C9.98668 0.988454 15.2561 -0.000503863 20.3914 1.92571e-07Z" fill="#F4823D"/>
<path d="M25.2661 20.4382C25.5297 20.2794 25.505 19.9235 25.1522 19.9074C24.9552 19.8987 24.7815 19.8676 24.631 19.8141C24.1123 19.6312 23.8386 19.1286 23.9379 18.5878C24.0614 17.9169 24.6153 17.6543 25.2479 17.6427C25.6959 17.6339 26.0386 17.6512 26.2762 17.6946C26.8438 17.7974 27.3403 18.0747 27.6266 18.5742C27.9759 19.1836 27.9592 19.9422 27.7843 20.6232C27.5031 21.7205 26.6805 22.4982 25.5816 22.7684C23.9006 23.1812 22.1369 22.5592 21.2392 21.0405C20.5693 19.9074 20.4912 18.3887 20.8097 17.0872C20.8803 16.7996 20.9878 16.5129 21.1323 16.2273C21.8839 14.7413 23.3789 14.0553 25.0105 14.1682C25.7217 14.2176 26.3866 14.387 26.9703 14.7696C27.4058 15.0543 27.6467 15.4742 27.5958 15.9904C27.5222 16.7389 26.8165 17.2273 26.0947 17.0066C25.8835 16.942 25.6315 16.7686 25.3986 16.7036C24.3719 16.4163 23.4827 16.9567 23.2715 17.9995C23.204 18.3332 23.1931 18.6657 23.2388 18.9971C23.3708 19.9598 23.9606 20.5944 24.9959 20.5405C25.0692 20.5365 25.1592 20.5024 25.2661 20.4382Z" fill="#C53219"/>
<path d="M10.0409 20.548C10.4607 20.548 10.6835 20.2511 10.683 19.8287C10.6827 19.5458 10.6844 18.1304 10.6881 15.5825C10.6891 14.71 11.3418 14.0956 12.228 14.2342C12.9452 14.3461 13.2845 14.9696 13.2845 15.645C13.2848 16.4777 13.2841 17.9017 13.2824 19.9169C13.2821 20.1632 13.2663 20.3749 13.2351 20.552C12.9467 22.1746 11.5606 22.8818 10.0393 22.8808C8.51811 22.8793 7.13296 22.1701 6.84716 20.5475C6.81591 20.3701 6.80045 20.1582 6.80079 19.9119C6.80213 17.8967 6.80348 16.4727 6.80482 15.64C6.80583 14.9646 7.14607 14.3416 7.86334 14.2312C8.74997 14.0936 9.40172 14.709 9.40121 15.5815C9.40121 18.1294 9.40088 19.5448 9.4002 19.8277C9.3992 20.2501 9.62148 20.5475 10.0409 20.548Z" fill="#C53219"/>
<path d="M5.22111 18.2695C5.25404 18.3152 5.30445 18.3663 5.37233 18.4227C5.8868 18.8495 6.15462 19.4051 6.17579 20.0896C6.19528 20.7207 6.03046 21.2762 5.68131 21.756C5.38594 22.1628 4.95245 22.4637 4.48569 22.6271C4.16343 22.74 3.81362 22.8005 3.43625 22.8085C2.8922 22.8196 2.23794 22.8199 1.47345 22.8095C0.579762 22.7974 0.00765877 22.2742 0.00665065 21.3664C0.00194613 18.0988 0.00328999 16.1765 0.0106828 15.5995C0.0184117 15.001 0.301019 14.5822 0.858505 14.3429C1.00905 14.278 1.24276 14.2438 1.55965 14.2401C2.22567 14.232 2.76787 14.2325 3.18624 14.2416C3.8773 14.2562 4.57642 14.4246 5.09106 14.8832C5.32864 15.0949 5.50489 15.3502 5.61982 15.6489C5.72702 15.9271 5.78683 16.2392 5.79926 16.5849C5.82144 17.1868 5.63091 17.7097 5.22766 18.1536C5.21342 18.1691 5.20498 18.1891 5.20379 18.2102C5.2026 18.2314 5.20871 18.2523 5.22111 18.2695ZM2.3117 16.4766L2.30666 17.3798C2.30646 17.4185 2.31388 17.4568 2.32849 17.4926C2.3431 17.5284 2.36461 17.561 2.39181 17.5884C2.419 17.6159 2.45134 17.6378 2.48698 17.6527C2.52262 17.6677 2.56086 17.6755 2.59951 17.6757L2.83743 17.6767C2.92891 17.6772 3.01958 17.6596 3.10428 17.6249C3.18897 17.5903 3.26602 17.5392 3.33104 17.4747C3.39605 17.4102 3.44775 17.3335 3.48319 17.249C3.51862 17.1645 3.5371 17.0738 3.53756 16.9821L3.53807 16.8864C3.53901 16.7013 3.46658 16.5234 3.33671 16.3919C3.20685 16.2603 3.03016 16.1858 2.84549 16.1847L2.60758 16.1837C2.56892 16.1835 2.53061 16.1909 2.49481 16.2055C2.45902 16.2201 2.42646 16.2417 2.39899 16.2689C2.37151 16.2961 2.34966 16.3284 2.33468 16.364C2.31971 16.3997 2.3119 16.4379 2.3117 16.4766ZM2.30817 19.518L2.31019 20.5564C2.31025 20.5945 2.31783 20.6323 2.33248 20.6675C2.34713 20.7027 2.36857 20.7346 2.39558 20.7615C2.42259 20.7885 2.45463 20.8098 2.48988 20.8243C2.52513 20.8388 2.5629 20.8463 2.60103 20.8462L2.94076 20.8457C3.13746 20.8453 3.32596 20.7646 3.46481 20.6212C3.60366 20.4778 3.6815 20.2835 3.68122 20.0811V19.9893C3.68108 19.889 3.66174 19.7897 3.62429 19.6971C3.58685 19.6044 3.53204 19.5203 3.46299 19.4495C3.39395 19.3787 3.31202 19.3225 3.2219 19.2843C3.13177 19.2461 3.03521 19.2265 2.93774 19.2267L2.598 19.2272C2.55988 19.2273 2.52213 19.2348 2.48693 19.2495C2.45173 19.2641 2.41977 19.2856 2.39285 19.3126C2.36594 19.3396 2.34461 19.3716 2.33008 19.4069C2.31555 19.4421 2.3081 19.4799 2.30817 19.518Z" fill="#C53219"/>
<path d="M19.1724 19.1708C19.3614 19.7399 19.7395 20.1653 20.1735 20.7424C20.7229 21.4738 20.5611 22.5308 19.5953 22.8222C18.7707 23.0712 18.0952 22.4603 17.7374 21.7747C17.4561 21.2364 17.2609 20.6551 17.1516 20.0307C17.1053 19.7656 16.7368 19.7495 16.7182 20.0403C16.7145 20.1031 16.7131 20.5576 16.7141 21.4038C16.7151 22.1059 16.4026 22.7385 15.6506 22.8595C15.1626 22.9381 14.6178 22.7733 14.3481 22.3126C14.1985 22.0572 14.1236 21.7958 14.1233 21.5283C14.1196 18.0536 14.1206 16.0851 14.1263 15.6227C14.1379 14.7149 14.7579 14.2542 15.6133 14.2396C16.1368 14.2309 16.6278 14.2294 17.0861 14.2351C17.2871 14.2374 17.4983 14.2532 17.7197 14.2825C18.4592 14.3792 19.19 14.7245 19.6533 15.3077C19.6912 15.3554 19.7783 15.4917 19.9144 15.7165C19.9258 15.7349 19.9351 15.7547 19.9421 15.7755L20.1014 16.2417C20.1041 16.2491 20.1057 16.2565 20.1064 16.2639C20.1387 16.5724 20.173 16.7705 20.1583 17.0497C20.1231 17.7141 19.8781 18.4389 19.366 18.8825C19.332 18.9117 19.2789 18.9611 19.2067 19.0307C19.1883 19.0483 19.1753 19.0709 19.1692 19.0957C19.1632 19.1205 19.1643 19.1465 19.1724 19.1708ZM16.5684 16.7024V17.6047C16.5684 17.6829 16.5995 17.7579 16.6548 17.8132C16.7101 17.8685 16.7851 17.8996 16.8633 17.8996H17.1184C17.2075 17.8996 17.2958 17.8815 17.3782 17.8465C17.4606 17.8114 17.5354 17.76 17.5985 17.6952C17.6615 17.6305 17.7115 17.5536 17.7457 17.4689C17.7798 17.3843 17.7973 17.2936 17.7973 17.202V17.1052C17.7973 17.0136 17.7798 16.9228 17.7457 16.8382C17.7115 16.7536 17.6615 16.6767 17.5985 16.6119C17.5354 16.5471 17.4606 16.4957 17.3782 16.4607C17.2958 16.4256 17.2075 16.4076 17.1184 16.4076H16.8633C16.7851 16.4076 16.7101 16.4386 16.6548 16.4939C16.5995 16.5492 16.5684 16.6242 16.5684 16.7024Z" fill="#C53219"/>
<path d="M31.339 19.5459C30.9867 19.5479 31.0154 19.8352 31.0255 20.1185C31.0336 20.3488 31.2236 20.3962 31.4378 20.3937C31.5689 20.392 31.9217 20.3922 32.4963 20.3942C33.2161 20.3967 33.8064 20.7793 33.828 21.5525C33.8449 22.1339 33.5838 22.5272 33.0447 22.7325C32.9019 22.787 32.6983 22.8147 32.4338 22.8157C31.6754 22.8184 30.8618 22.8164 29.9932 22.8096C29.3919 22.8051 28.8117 22.5354 28.6146 21.9467C28.5538 21.7652 28.523 21.5633 28.5224 21.3408C28.5176 19.3639 28.5188 17.4537 28.5259 15.6102C28.5294 14.7256 29.163 14.2578 30.0043 14.2422C30.4791 14.2335 31.2974 14.2316 32.459 14.2367C33.1022 14.2392 33.6642 14.4932 33.8054 15.1757C33.9772 16.0039 33.4117 16.6334 32.5845 16.6546C32.4605 16.6576 32.0467 16.659 31.3431 16.6586C31.03 16.6586 31.0215 16.8804 31.0225 17.1355C31.023 17.3522 31.1339 17.4697 31.3501 17.4692C31.9116 17.4688 32.2181 17.4697 32.2695 17.4717C32.9323 17.4979 33.4031 17.8825 33.3719 18.5967C33.3462 19.1769 32.8401 19.5333 32.2942 19.5388C32.0738 19.5408 31.7554 19.5432 31.339 19.5459Z" fill="#C53219"/>
<path d="M39.4717 19.1703C39.6607 19.7389 40.0388 20.1638 40.4728 20.7405C41.0222 21.4713 40.8609 22.5273 39.8956 22.8187C39.072 23.0682 38.3966 22.4578 38.0387 21.7728C37.7574 21.2351 37.5622 20.6543 37.453 20.0303C37.4066 19.7656 37.0381 19.7495 37.0195 20.0403C37.0161 20.1028 37.0149 20.557 37.016 21.4028C37.0175 22.1039 36.7055 22.7365 35.9539 22.8575C35.4665 22.9361 34.9221 22.7718 34.6524 22.3116C34.5029 22.0566 34.4278 21.7953 34.4271 21.5278C34.4224 18.0559 34.4228 16.0889 34.4281 15.6268C34.4392 14.7195 35.0587 14.2588 35.9136 14.2442C36.4368 14.2351 36.9274 14.2334 37.3854 14.2392C37.586 14.2412 37.7971 14.2568 38.0185 14.286C38.7575 14.3828 39.4878 14.7271 39.9511 15.3098C39.989 15.3575 40.0761 15.4937 40.2122 15.7186C40.2235 15.7368 40.2328 15.7564 40.2399 15.777L40.3992 16.2433C40.4019 16.2506 40.4035 16.2581 40.4042 16.2655C40.4365 16.5734 40.4708 16.7715 40.4561 17.0503C40.4214 17.7141 40.1769 18.4389 39.6653 18.882C39.6313 18.9112 39.5782 18.9606 39.506 19.0302C39.4876 19.0478 39.4746 19.0703 39.4685 19.0951C39.4625 19.12 39.4636 19.146 39.4717 19.1703ZM36.8738 16.703V17.6042C36.8738 17.6826 36.9049 17.7577 36.9603 17.8131C37.0157 17.8685 37.0908 17.8996 37.1692 17.8996H37.4237C37.6035 17.8996 37.776 17.8263 37.9031 17.6957C38.0303 17.5652 38.1017 17.3881 38.1017 17.2035V17.1037C38.1017 16.9191 38.0303 16.742 37.9031 16.6115C37.776 16.4809 37.6035 16.4076 37.4237 16.4076H37.1692C37.0908 16.4076 37.0157 16.4387 36.9603 16.4941C36.9049 16.5495 36.8738 16.6246 36.8738 16.703Z" fill="#C53219"/>
<path d="M4.3766 27.4937C4.60443 27.6399 4.77883 27.4322 4.93761 27.2497C5.11504 27.0458 5.27902 26.8359 5.42957 26.6202C5.77737 26.1228 6.18313 25.5003 6.64686 24.7526C6.98357 24.2098 7.5093 23.7929 8.13585 23.6745C8.68527 23.5711 9.30828 23.736 9.76395 24.0626C10.1467 24.3375 10.4058 24.6854 10.5412 25.1065C10.827 25.9962 10.3829 26.9282 9.81839 27.6348C9.37683 28.188 8.85749 28.7342 8.26035 29.2735C7.98866 29.5185 8.10963 29.7887 8.2921 30.0462C8.8879 30.8895 9.57241 31.6638 10.2987 32.4622C10.3938 32.567 10.5037 32.7134 10.6284 32.9012C11.1743 33.7223 11.1345 34.7123 10.5226 35.4734C10.1072 35.9891 9.48268 36.3243 8.82287 36.3359C7.84349 36.3535 7.09195 35.731 6.5269 35.0001C5.83197 34.1009 5.24828 33.126 4.77581 32.0756C4.71767 31.9455 4.6219 31.8859 4.4885 31.8966C4.32216 31.9092 4.29897 32.0811 4.29947 32.2218C4.3025 32.8515 4.30199 33.45 4.29796 34.0172C4.2899 35.1211 3.72687 36.1151 2.56653 36.3036C2.01308 36.3938 1.40468 36.3036 0.93742 35.978C0.601719 35.7438 0.35742 35.4198 0.204523 35.0062C0.0926224 34.7034 0.0363362 34.3947 0.0356642 34.0802C0.0299515 31.026 0.0297838 28.3 0.0351604 25.9024C0.0354964 25.6843 0.0721245 25.4392 0.145045 25.167C0.290213 24.6261 0.634483 24.1443 1.1335 23.8872C1.57304 23.6609 2.09927 23.5963 2.59425 23.6866C3.23071 23.8028 3.69881 24.14 3.99855 24.6982C4.18673 25.0484 4.28503 25.4422 4.29343 25.8797C4.30384 26.4406 4.30586 26.889 4.29947 27.225C4.29746 27.3205 4.31006 27.3954 4.33728 27.4499C4.3462 27.4677 4.35978 27.4828 4.3766 27.4937Z" fill="#C53219"/>
<path d="M14.1974 23.6426C14.335 23.6426 14.4646 23.6663 14.5624 23.6738C14.6595 23.6812 14.7753 23.7058 14.9097 23.7474C15.4719 23.9212 15.8864 24.2676 16.1532 24.7868C16.3632 25.1947 16.4667 25.6511 16.4637 26.1558C16.4627 26.2895 16.4622 27.5683 16.4622 29.9922C16.4622 32.4157 16.4627 33.6945 16.4637 33.8285C16.4667 34.3333 16.3632 34.7896 16.1532 35.1976C15.8864 35.7167 15.4719 36.0632 14.9097 36.2369C14.7753 36.2786 14.6595 36.3031 14.5624 36.3105C14.4646 36.3176 14.335 36.3413 14.1974 36.3413C14.0603 36.3413 13.9308 36.3176 13.833 36.3105C13.7359 36.3031 13.6201 36.2786 13.4857 36.2369C12.9235 36.0632 12.509 35.7167 12.2422 35.1976C12.0322 34.7896 11.9287 34.3333 11.9317 33.8285C11.9324 33.6945 11.9327 32.4157 11.9327 29.9922C11.9327 27.5683 11.9324 26.2895 11.9317 26.1558C11.9287 25.6511 12.0322 25.1947 12.2422 24.7868C12.509 24.2676 12.9235 23.9212 13.4857 23.7474C13.6201 23.7058 13.7359 23.6812 13.833 23.6738C13.9303 23.6663 14.0603 23.6426 14.1974 23.6426Z" fill="#C53219"/>
<path d="M22.605 31.0696C22.4659 30.7994 22.1539 30.8528 22.1488 31.1699C22.1451 31.3934 22.1443 32.3175 22.1463 33.9422C22.1468 34.4311 22.0727 34.9362 21.8167 35.3742C21.5139 35.8911 21.0644 36.2005 20.4683 36.3027C20.1099 36.3647 19.6759 36.3435 19.3266 36.219C18.7654 36.0187 18.3743 35.6246 18.1532 35.0365C18.009 34.6539 17.9838 34.2769 17.9833 33.8243C17.9816 30.7855 17.9823 28.1447 17.9853 25.902C17.9853 25.7303 18.0094 25.5384 18.0574 25.3264C18.1045 25.117 18.1668 24.9341 18.2444 24.7775C18.605 24.0493 19.2225 23.6721 20.0968 23.6459C21.235 23.6116 21.8857 24.4004 22.36 25.3163C22.8036 26.1729 23.4076 27.3455 24.1721 28.8341C24.2276 28.942 24.2976 29.064 24.4131 29.0851C24.587 29.1164 24.6696 28.9586 24.6711 28.8023C24.6728 28.5715 24.6738 27.6262 24.6742 25.9665C24.6747 25.3284 24.8425 24.7013 25.2745 24.2406C25.7453 23.7381 26.4802 23.5632 27.1582 23.6816C27.7845 23.7909 28.2456 24.1203 28.5413 24.6701C28.8049 25.16 28.8356 25.6404 28.8356 26.2634C28.8373 30.7512 28.8365 33.357 28.8331 34.0808C28.8321 34.2767 28.7995 34.5042 28.7353 34.7633C28.5987 35.3158 28.2419 35.8395 27.7297 36.096C27.4975 36.212 27.2884 36.2814 27.1022 36.3042C26.9543 36.322 26.8293 36.3329 26.7272 36.337C25.5926 36.3803 24.9338 35.5834 24.4609 34.6711C24.1609 34.0921 23.5422 32.8916 22.605 31.0696Z" fill="#C53219"/>
<path d="M37.064 32.245C37.001 32.0484 36.7353 31.9859 36.5559 31.9844C35.7524 31.9788 34.9888 31.5221 34.8285 30.702C34.7888 30.4987 34.7898 30.2796 34.8315 30.0448C34.9279 29.5041 35.2331 29.12 35.7469 28.8925C36.0024 28.7796 36.2973 28.7135 36.5745 28.6979C37.4284 28.6495 38.244 28.6546 39.0061 28.9358C40.1644 29.3628 40.7557 30.3593 40.7738 31.561C40.7985 33.2143 40.1281 34.7027 38.6981 35.5798C38.1863 35.8933 37.6062 36.1074 36.9576 36.222C35.4394 36.4901 33.8622 36.2451 32.5627 35.4382C30.6972 34.2788 29.8938 32.3135 29.8605 30.1496C29.8368 28.6188 30.1881 27.0103 31.1534 25.7885C32.2618 24.3847 33.9494 23.6821 35.7373 23.6458C37.0997 23.618 38.5625 23.8796 39.6281 24.7098C40.0438 25.0338 40.2714 25.4599 40.3111 25.9881C40.4149 27.3702 38.9602 28.2785 37.7515 27.6444C37.441 27.4821 37.0907 27.3158 36.7262 27.2553C36.3633 27.1948 36.0325 27.1933 35.7338 27.2508C35.1107 27.3711 34.6048 27.7043 34.216 28.2503C34.21 28.2584 34.1512 28.3686 34.0396 28.581C33.9727 28.708 33.9279 28.8236 33.905 28.9278C33.8662 29.1072 33.7992 29.2665 33.78 29.4842C33.7521 29.8005 33.7385 29.9969 33.7392 30.0735C33.7483 30.8538 33.9262 31.6265 34.4424 32.1961C34.6537 32.4293 34.9142 32.6091 35.2236 32.7354C35.519 32.856 35.8619 32.9177 36.2524 32.9204C36.4974 32.9221 36.7158 32.851 36.9077 32.7072C37.0418 32.6064 37.1179 32.4123 37.064 32.245Z" fill="#C53219"/>
<path d="M20.3975 37.6665C31.6336 37.6669 38.0561 37.6672 39.665 37.6675C40.1827 37.6675 40.6701 37.8374 40.7644 38.4146C40.906 39.282 40.3475 40.2266 39.8001 40.8572C38.8681 41.9314 37.6307 42.6789 36.2737 43.2036C35.2354 43.6052 34.1206 43.918 32.9293 44.1421C31.4723 44.416 30.0174 44.6096 28.5647 44.7228C25.8272 44.936 23.1164 45 20.397 45C17.6776 45 14.9673 44.9355 12.2293 44.7218C10.7766 44.6086 9.3217 44.415 7.86465 44.1411C6.67339 43.9167 5.55876 43.6036 4.52074 43.2021C3.16382 42.6774 1.92636 41.9293 0.994362 40.8552C0.446957 40.2246 -0.111537 39.28 0.0301026 38.4125C0.124865 37.8354 0.612287 37.6655 1.12995 37.6655C2.7389 37.6655 9.16141 37.6659 20.3975 37.6665Z" fill="#F4823D"/>
<path d="M40.2291 43.889C40.2291 44.061 40.1607 44.226 40.0391 44.3477C39.9174 44.4693 39.7524 44.5377 39.5804 44.5377C39.4083 44.5377 39.2433 44.4693 39.1216 44.3477C39 44.226 38.9316 44.061 38.9316 43.889C38.9316 43.7169 39 43.5519 39.1216 43.4302C39.2433 43.3086 39.4083 43.2402 39.5804 43.2402C39.7524 43.2402 39.9174 43.3086 40.0391 43.4302C40.1607 43.5519 40.2291 43.7169 40.2291 43.889ZM39.5744 43.3713C39.44 43.3727 39.3116 43.4285 39.2175 43.5264C39.1234 43.6243 39.0714 43.7562 39.0728 43.8933C39.0742 44.0303 39.129 44.1611 39.2251 44.257C39.3212 44.3529 39.4508 44.406 39.5853 44.4046C39.7197 44.4032 39.8481 44.3474 39.9422 44.2495C40.0363 44.1516 40.0883 44.0197 40.0869 43.8826C40.0855 43.7456 40.0307 43.6148 39.9346 43.5189C39.8385 43.423 39.7089 43.3699 39.5744 43.3713Z" fill="#C53219"/>
<path d="M39.4921 43.996V44.1593C39.4921 44.1754 39.4856 44.191 39.4742 44.2024C39.4628 44.2138 39.4473 44.2203 39.4311 44.2203H39.4119C39.397 44.2203 39.3826 44.2143 39.372 44.2037C39.3614 44.1931 39.3555 44.1788 39.3555 44.1638V43.6179C39.3555 43.6022 39.3607 43.587 39.3704 43.5747C39.3801 43.5623 39.3937 43.5536 39.4089 43.5499C39.461 43.5368 39.5435 43.5368 39.6564 43.5499C39.8464 43.572 39.917 43.7802 39.7733 43.9133C39.7471 43.9375 39.7234 43.936 39.6967 43.9466C39.6928 43.9482 39.6893 43.9507 39.6865 43.9539C39.6837 43.9571 39.6817 43.961 39.6808 43.9651C39.6798 43.9693 39.6798 43.9736 39.6808 43.9777C39.6818 43.9819 39.6838 43.9857 39.6866 43.9889L39.8111 44.125C39.8168 44.1312 39.8212 44.1385 39.8239 44.1464C39.8266 44.1544 39.8277 44.1628 39.827 44.1712C39.8264 44.1796 39.824 44.1878 39.82 44.1953C39.8161 44.2028 39.8107 44.2094 39.8041 44.2147L39.8036 44.2157C39.7901 44.2265 39.773 44.2315 39.7559 44.2298C39.7387 44.2282 39.7229 44.2198 39.7118 44.2067L39.5238 43.9844C39.5214 43.9816 39.5182 43.9797 39.5147 43.9788C39.5111 43.9779 39.5074 43.9781 39.504 43.9793C39.5006 43.9806 39.4976 43.9828 39.4955 43.9858C39.4933 43.9888 39.4921 43.9923 39.4921 43.996ZM39.4911 43.694L39.4931 43.8261C39.4931 43.8294 39.4939 43.8327 39.4952 43.8357C39.4965 43.8387 39.4984 43.8415 39.5008 43.8438C39.5032 43.8461 39.506 43.8479 39.5091 43.8491C39.5122 43.8503 39.5155 43.8509 39.5188 43.8508L39.5591 43.8498C39.5989 43.8491 39.6369 43.8395 39.6648 43.823C39.6927 43.8066 39.7082 43.7847 39.7078 43.7621V43.75C39.7076 43.7388 39.7036 43.7278 39.6959 43.7175C39.6881 43.7073 39.6769 43.6981 39.6628 43.6904C39.6487 43.6828 39.632 43.6768 39.6137 43.6728C39.5954 43.6688 39.5758 43.667 39.5561 43.6673L39.5158 43.6683C39.5124 43.6684 39.5092 43.6691 39.5062 43.6704C39.5031 43.6718 39.5004 43.6737 39.4981 43.6761C39.4958 43.6784 39.494 43.6813 39.4928 43.6843C39.4916 43.6874 39.491 43.6907 39.4911 43.694Z" fill="#C53219"/>
</svg>
