<svg width="11" height="17" viewBox="0 0 11 17" fill="none" xmlns="http://www.w3.org/2000/svg">
<path d="M8.71582 11.2695C8.91362 11.0014 9.25737 10.9196 9.4834 11.0869C9.70922 11.2542 9.73187 11.6069 9.53418 11.875L5.95312 16.7305C5.75533 16.9986 5.41158 17.0804 5.18555 16.9131C4.95956 16.7458 4.93698 16.3931 5.13477 16.125L8.71582 11.2695Z" fill="url(#paint0_linear_12_8477)" fill-opacity="0.5"/>
<path d="M5.5 0C8.53757 0 11 2.46253 11 5.5C10.9999 8.36878 8.80311 10.7229 6 10.9756V16.5C6 16.7761 5.77614 17 5.5 17C5.22386 17 5 16.7761 5 16.5V10.9756C2.19689 10.7229 9.27374e-05 8.36878 0 5.5C0 2.46253 2.46243 0 5.5 0ZM5.5 4C4.67157 4 4 4.67157 4 5.5C4 6.32843 4.67157 7 5.5 7C6.32843 7 7 6.32843 7 5.5C7 4.67157 6.32843 4 5.5 4Z" fill="#532013"/>
<defs>
<linearGradient id="paint0_linear_12_8477" x1="5.51001" y1="16.442" x2="8.36649" y2="12.6947" gradientUnits="userSpaceOnUse">
<stop/>
<stop offset="1" stop-opacity="0"/>
</linearGradient>
</defs>
</svg>
