<svg width="15" height="24" viewBox="0 0 15 24" fill="none" xmlns="http://www.w3.org/2000/svg">
<path d="M7.99419 12.9664C7.06481 12.9703 6.13737 13.0142 5.21187 13.0982C4.7859 13.1364 4.37154 13.9978 3.96881 15.6823C3.95665 15.7388 3.9323 15.7919 3.89741 15.8382C3.86251 15.8845 3.8179 15.9228 3.76662 15.9506C3.71535 15.9783 3.65861 15.9948 3.60028 15.999C3.54195 16.0031 3.48339 15.9948 3.42861 15.9746L1.39559 15.2469C1.03546 15.1132 0.921207 14.8687 1.05287 14.5135C1.96289 12.0611 3.32212 8.21074 5.13054 2.96229C5.81208 0.987437 6.76084 1.10826e-05 7.97678 1.10826e-05C9.18884 -0.00380875 10.1376 0.979804 10.823 2.95084C12.6508 8.19547 14.0255 12.042 14.9471 14.4906C15.0788 14.8458 14.9645 15.0903 14.6044 15.224L12.5714 15.9574C12.517 15.9776 12.4589 15.9862 12.4009 15.9824C12.3429 15.9786 12.2864 15.9626 12.2352 15.9354C12.184 15.9083 12.1393 15.8706 12.1041 15.825C12.0689 15.7794 12.044 15.7268 12.0312 15.6709C11.6246 13.9863 11.2064 13.125 10.7765 13.0868C9.85491 13.0066 8.92744 12.9664 7.99419 12.9664ZM6.01346 9.84945C6.00315 9.87916 6.00025 9.91089 6.00506 9.94194C6.00986 9.97298 6.02222 10.0024 6.04104 10.0277C6.05987 10.0531 6.08462 10.0735 6.11319 10.0874C6.14176 10.1012 6.17333 10.1081 6.20515 10.1073L9.82392 10.0786C9.85526 10.0785 9.88608 10.071 9.9139 10.0567C9.94171 10.0425 9.96572 10.0219 9.98388 9.99674C10.002 9.97154 10.0138 9.94245 10.0183 9.91186C10.0228 9.88127 10.0199 9.85005 10.0098 9.8208L8.16266 4.3317C8.15025 4.29187 8.1252 4.25701 8.09122 4.23225C8.05724 4.20749 8.01612 4.19412 7.97387 4.19412C7.93162 4.19412 7.8905 4.20749 7.85652 4.23225C7.82254 4.25701 7.79749 4.29187 7.78508 4.3317L6.01346 9.84945Z" fill="#A68B7F"/>
<path d="M14.5887 20.9745L0.411271 20.9993C0.184133 20.9997 0.000304905 21.1752 0.000681023 21.3913L0.00454016 23.6087C0.00491627 23.8248 0.189354 23.9997 0.416493 23.9993L14.5939 23.9745C14.8211 23.9741 15.0049 23.7985 15.0045 23.5824L15.0007 21.365C15.0003 21.1489 14.8158 20.9741 14.5887 20.9745Z" fill="#A68B7F"/>
</svg>
