<svg width="64" height="28" viewBox="0 0 64 28" fill="none" xmlns="http://www.w3.org/2000/svg">
<path d="M12.2551 4.2124C13.3549 2.9732 13.7397 1.52795 13.1146 0.984333C12.4895 0.440717 11.0912 1.00459 9.99137 2.24379C8.89157 3.48298 8.50676 4.92824 9.13188 5.47185C9.757 6.01547 11.1553 5.45159 12.2551 4.2124Z" fill="#A68B7F"/>
<path d="M23.6558 23H21.3011C21.2212 23 21.1447 22.9675 21.0882 22.9096C21.0317 22.8517 21 22.7731 21 22.6912V3.51575C21 3.39112 21.0477 3.27148 21.1329 3.18262C21.2181 3.09376 21.334 3.04279 21.4555 3.04072C24.976 2.97738 27.3847 2.98794 28.6817 3.07239C32.7837 3.35213 34.8888 5.5188 34.9969 9.57241C35.0586 11.8367 34.2043 13.5732 32.4337 14.7819C30.3184 16.2308 27.3538 16.1041 24.6054 16.0804C24.5398 16.0793 24.4747 16.0916 24.4139 16.1166C24.3531 16.1416 24.2977 16.1788 24.251 16.2259C24.2043 16.2731 24.1672 16.3293 24.1419 16.3913C24.1166 16.4533 24.1036 16.5198 24.1036 16.5871V22.5408C24.1036 22.6626 24.0564 22.7794 23.9724 22.8655C23.8884 22.9516 23.7745 23 23.6558 23ZM24.1036 5.9305V13.1668C24.1036 13.255 24.1377 13.3396 24.1985 13.402C24.2593 13.4643 24.3418 13.4993 24.4278 13.4993H27.9868C29.0086 13.4993 29.9885 13.1307 30.711 12.4744C31.4334 11.8181 31.8393 10.928 31.8393 9.99994V9.09738C31.8393 8.16928 31.4334 7.27919 30.711 6.62293C29.9885 5.96666 29.0086 5.59797 27.9868 5.59797H24.4278C24.3418 5.59797 24.2593 5.63301 24.1985 5.69537C24.1377 5.75773 24.1036 5.84231 24.1036 5.9305Z" fill="#A68B7F"/>
<path d="M16.9195 9.33074C15.0799 10.8917 14.6676 12.9229 15.6825 15.4245C15.7505 15.6032 15.8559 15.7645 15.9917 15.8975L17.8471 17.7117C17.897 17.7611 17.9361 17.8198 17.9624 17.8842C17.9886 17.9487 18.0014 18.0177 17.9999 18.0871C17.9984 18.1564 17.9827 18.2248 17.9538 18.2882C17.9248 18.3515 17.8832 18.4086 17.8313 18.4559C17.5379 18.7118 17.0622 18.9986 16.8956 19.4173C16.404 20.6061 15.5265 21.6811 14.2632 22.6425C14.0854 22.7754 13.8801 22.8705 13.6606 22.9216C11.4563 23.4488 10.0449 21.0842 7.12697 22.7045C6.95385 22.802 6.76625 22.8702 6.57197 22.9061C5.53062 23.1025 4.61876 22.8001 3.83642 21.999C0.411042 18.518 -2.2452 11.0674 2.80564 7.81892C4.00558 7.04363 5.3218 6.85756 6.75433 7.26071C7.31994 7.42094 8.1049 7.59409 9.10925 7.78016C9.49391 7.85051 9.88889 7.79026 10.2273 7.60959C12.0087 6.64823 14.1918 6.82396 16.7767 8.13679C16.8845 8.19023 16.9769 8.26891 17.0459 8.36594C17.1149 8.46297 17.1583 8.57536 17.1724 8.69326C17.1865 8.81115 17.1708 8.93094 17.1267 9.04209C17.0826 9.15324 17.0114 9.25236 16.9195 9.33074Z" fill="#A68B7F"/>
<path d="M37.1475 12.6357C37.0698 12.6507 36.9896 12.6449 36.915 12.6191C36.8405 12.5932 36.7742 12.5482 36.723 12.4885C36.6717 12.4289 36.6374 12.3567 36.6234 12.2795C36.6095 12.2022 36.6164 12.1226 36.6435 12.0488C38.0905 8.27364 41.326 7.52019 45.0491 8.24984C46.3986 8.50892 47.5069 9.30202 48.374 10.6291C48.8401 11.3376 49.0433 12.6806 48.9837 14.6581C48.9458 16.0539 48.9512 18.5972 48.9999 22.2877C49.001 22.3707 48.9852 22.453 48.9534 22.5299C48.9216 22.6069 48.8745 22.6769 48.8148 22.7359C48.755 22.7949 48.6838 22.8418 48.6054 22.8738C48.5269 22.9057 48.4428 22.9222 48.3578 22.9222H46.553C46.4447 22.9218 46.3377 22.8981 46.2399 22.8529C46.1421 22.8078 46.0559 22.7422 45.9874 22.661C45.919 22.5798 45.87 22.485 45.8441 22.3834C45.8182 22.2818 45.816 22.176 45.8377 22.0736C45.9298 21.6559 45.946 21.3334 45.8864 21.106C45.8736 21.0526 45.8461 21.0037 45.8069 20.9645C45.7677 20.9252 45.7182 20.8972 45.6639 20.8833C45.6096 20.8694 45.5524 20.8703 45.4985 20.8858C45.4446 20.9013 45.396 20.9308 45.3581 20.9712C43.0602 23.3928 40.3802 23.6466 37.3182 21.7326C37.0942 21.587 36.9099 21.3881 36.7817 21.1536C35.183 18.2085 36.0365 16.054 39.3424 14.6898C39.9277 14.4466 41.8245 14.2933 45.0329 14.2298C45.2112 14.2269 45.3857 14.1786 45.539 14.0897C45.6923 14.0008 45.8192 13.8744 45.9071 13.723C45.9949 13.5715 46.0408 13.4004 46.04 13.2264C46.0392 13.0523 45.9919 12.8815 45.9027 12.7309L45.0979 11.3667C44.9492 11.1176 44.7328 10.912 44.472 10.7719C43.1984 10.1057 41.8056 10.267 40.2936 11.2557C39.8058 11.5729 39.8545 12.2471 39.4887 12.4771C39.3045 12.5881 39.1175 12.633 38.9278 12.6119C38.2558 12.5379 37.6623 12.5458 37.1475 12.6357ZM45.9027 16.3315C45.903 16.2943 45.8952 16.2575 45.8797 16.2235C45.8642 16.1895 45.8415 16.1591 45.813 16.1343C45.7845 16.1095 45.751 16.091 45.7146 16.0798C45.6782 16.0687 45.6398 16.0653 45.6019 16.0698C44.2904 16.2179 42.7784 16.3685 41.0658 16.5219C40.7731 16.5472 40.4898 16.6359 40.2368 16.7815C39.9838 16.927 39.7676 17.1258 39.6038 17.3631C39.4401 17.6005 39.3331 17.8704 39.2906 18.153C39.2482 18.4356 39.2715 18.7238 39.3587 18.9964C39.7164 20.0908 40.8707 20.7174 42.147 20.6381C44.5912 20.5006 45.8431 19.0651 45.9027 16.3315Z" fill="#A68B7F"/>
<path d="M57.1058 19.4818C57.1058 19.4943 57.1108 19.5064 57.1197 19.5152C57.1287 19.5241 57.1408 19.5291 57.1535 19.5291C57.1661 19.5291 57.1782 19.5241 57.1872 19.5152C57.1961 19.5064 57.2012 19.4943 57.2012 19.4818L60.9282 8.58279C60.9817 8.42218 61.0851 8.28242 61.2235 8.18343C61.3619 8.08445 61.5283 8.03129 61.699 8.03154H63.4473C63.5351 8.0321 63.6214 8.05322 63.6993 8.09318C63.7773 8.13314 63.8446 8.1908 63.8957 8.26145C63.9469 8.3321 63.9804 8.41374 63.9937 8.4997C64.0069 8.58566 63.9994 8.6735 63.9718 8.75604C63.5797 9.91104 61.6831 15.0666 58.2819 24.2226C57.2912 26.8896 55.3575 28.1443 52.4808 27.9868C52.1964 27.9703 51.926 27.859 51.7135 27.671C51.501 27.483 51.3588 27.2293 51.31 26.9512C51.2612 26.6731 51.3087 26.3868 51.4448 26.1388C51.5809 25.8908 51.7975 25.6956 52.0596 25.5849C52.4463 25.4222 53 25.3539 53.7205 25.3802C53.9006 25.385 54.0776 25.3364 54.228 25.2408C54.3784 25.1451 54.4952 25.007 54.5628 24.8447L55.421 22.7814C55.4723 22.6551 55.4723 22.514 55.421 22.3877L50.0014 8.03154C50.0001 8.02787 49.9997 8.02393 50.0003 8.02007C50.0009 8.01622 50.0024 8.01257 50.0047 8.00945C50.0071 8.00633 50.0102 8.00384 50.0138 8.0022C50.0174 8.00055 50.0213 7.99981 50.0252 8.00004L53.2436 8.14966C53.2628 8.15179 53.2812 8.15955 53.2966 8.17207C53.312 8.18458 53.324 8.20137 53.3311 8.22054L57.1058 19.4818Z" fill="#A68B7F"/>
</svg>
