<svg width="24" height="24" viewBox="0 0 24 24" fill="none" xmlns="http://www.w3.org/2000/svg">
<path d="M14.3045 20.2829C13.8537 20.6123 12.6959 21.7576 10.8312 23.7187C10.4778 24.0886 10.1191 24.0937 9.75542 23.7339L6.72016 20.7466C6.52037 20.5541 6.53574 20.3767 6.76627 20.2145C7.32977 19.8142 7.96246 19.6014 8.66428 19.576C8.81284 19.571 8.85637 19.5279 8.7949 19.4468V19.4392C8.7283 19.3581 8.68734 19.3176 8.67197 19.3176C7.60643 19.3125 5.58035 19.2948 2.59377 19.2644C2.31714 19.2593 2.17884 19.12 2.17884 18.8463V14.582C2.17884 14.0854 2.39654 13.9613 2.83197 14.2096L3.93085 14.8405C3.99232 14.8759 4.04352 14.8607 4.0845 14.7949L4.21516 14.5668C4.22541 14.5516 4.22284 14.539 4.20747 14.5288L0.157895 10.6218C0.108594 10.5739 0.0692454 10.5169 0.0421448 10.4541C0.0150442 10.3914 0.000742901 10.3241 2.82014e-05 10.2563C-0.000686498 10.1884 0.0121891 10.1213 0.0379707 10.0588C0.0637523 9.99624 0.101908 9.93958 0.150204 9.89208L3.23926 6.81359C3.45954 6.59568 3.63371 6.62863 3.76178 6.9124C3.90521 7.22152 3.96925 7.64465 3.95388 8.18181C3.94876 8.3541 4.01279 8.3845 4.14598 8.27302L4.33809 8.1134C4.35858 8.09313 4.37138 8.06779 4.3765 8.03738L4.54558 2.56451C4.54958 2.41798 4.61126 2.27878 4.71747 2.17656C4.82367 2.07434 4.96601 2.01716 5.1142 2.01722H9.40198C9.48469 2.01749 9.5656 2.04093 9.6354 2.08481C9.70521 2.1287 9.76104 2.19124 9.79641 2.26519C9.83178 2.33915 9.84526 2.4215 9.83529 2.50272C9.82532 2.58394 9.79232 2.66071 9.74009 2.72414L8.62587 4.07715C8.6105 4.10249 8.61559 4.12022 8.64121 4.13036L8.9409 4.21397C9.04848 4.24944 9.14068 4.22664 9.21752 4.14556L13.3132 0.0941103C13.3708 0.0379756 13.4471 0.00465423 13.5278 0.000452046C13.6085 -0.00375014 13.688 0.0214593 13.7512 0.0713075L17.0247 2.71653C17.089 2.76709 17.1388 2.83338 17.1691 2.90897C17.1994 2.98456 17.2092 3.06689 17.1976 3.14796C17.186 3.22903 17.1534 3.30609 17.1029 3.37167C17.0524 3.43725 16.9857 3.48913 16.9094 3.52226L15.3495 4.19876C14.9192 4.38119 14.9397 4.47241 15.411 4.47241H21.3125C21.4327 4.47241 21.548 4.52046 21.633 4.60599C21.718 4.69152 21.7658 4.80753 21.7658 4.92849V9.21557C21.7658 9.48922 21.6301 9.6159 21.3586 9.59563C20.6157 9.55003 20.0369 9.19784 19.6219 8.53907C19.4836 8.3161 19.4068 8.33637 19.3914 8.59988C19.376 8.84818 19.5425 9.12943 19.8909 9.44361C20.7617 10.2189 22.0937 11.572 23.8866 13.5027C24.0403 13.6648 24.0377 13.827 23.8789 13.9891L20.8053 16.984C20.7393 17.047 20.6575 17.0914 20.5684 17.1127C20.4792 17.1339 20.386 17.1312 20.2982 17.1049C20.2105 17.0785 20.1315 17.0295 20.0693 16.9628C20.0071 16.8961 19.9641 16.8142 19.9446 16.7256L19.645 15.2737C19.6245 15.1876 19.5733 15.1623 19.4913 15.1977L19.2992 15.2813C19.2736 15.2915 19.2607 15.3092 19.2607 15.3346V21.3851C19.2607 21.6284 19.1378 21.75 18.8919 21.75H14.3429C14.2827 21.7496 14.2237 21.7338 14.1716 21.704C14.1196 21.6742 14.0763 21.6314 14.046 21.58C14.0158 21.5286 13.9996 21.4702 13.9991 21.4107C13.9986 21.3512 14.0138 21.2926 14.0432 21.2407L14.5042 20.4578C14.7245 20.0828 14.658 20.0245 14.3045 20.2829ZM14.266 5.30095C14.1789 5.46311 14.1354 5.57458 14.1354 5.63539C14.12 5.90904 14.1815 5.91918 14.3198 5.6658C14.3454 5.61513 14.3685 5.50617 14.389 5.33895C14.4197 5.10584 14.3787 5.09318 14.266 5.30095ZM14.4735 13.9511L16.602 13.7839C17.0733 13.7434 17.1041 13.6065 16.6943 13.3734C16.1717 13.0745 15.7439 12.6843 15.411 12.2028C15.2829 12.0204 15.2906 11.8431 15.434 11.6708L17.0631 9.69445C17.1963 9.53229 17.163 9.48161 16.9632 9.54242C15.9591 9.8414 15.1215 9.87181 14.4504 9.63364C14.1994 9.54243 14.0739 9.36507 14.0739 9.10156V6.79078C14.0739 6.43606 13.9945 6.41833 13.8357 6.73758C13.3747 7.67 12.7574 8.28316 11.9839 8.57707C11.8455 8.63282 11.7226 8.60747 11.615 8.50106C10.8569 7.7612 10.1396 7.04163 9.46342 6.34231C9.26363 6.13455 9.13299 6.05346 9.07152 6.09907H9.06387C9.01777 6.13454 9.03057 6.18775 9.10229 6.2587C9.87583 7.04923 10.1115 8.10579 9.80922 9.42841C9.75287 9.67671 9.59406 9.80087 9.3328 9.80087H7.94197C7.31187 9.80087 7.21967 10.0238 7.66535 10.4698L8.75649 11.5492C8.93579 11.7214 8.94601 11.9013 8.78721 12.0888L7.51935 13.6243C7.3503 13.8371 7.40153 13.9435 7.67304 13.9435H9.41732C9.65809 13.9435 9.78616 14.0626 9.80153 14.3008C9.87837 15.7957 9.95268 16.6394 10.0244 16.832C10.1371 17.1411 10.2498 17.1614 10.3625 16.8928C10.634 16.2442 11.072 15.6766 11.6765 15.1901C11.8814 15.0229 12.0888 15.0254 12.2989 15.1977L14.0048 16.566C14.0868 16.6318 14.1277 16.6141 14.1277 16.5127V14.3312C14.1277 14.0981 14.243 13.9714 14.4735 13.9511Z" fill="#A68B7F"/>
</svg>
