<svg width="30" height="23" viewBox="0 0 30 23" fill="none" xmlns="http://www.w3.org/2000/svg">
<path d="M5.6325 7.69561C5.33123 7.69561 5.18059 7.85283 5.18059 8.16726V11.9786C5.18059 13.2921 4.55377 13.9489 3.30007 13.9489H1.88596C0.525346 13.9489 -0.0990381 13.2414 0.0127263 11.8264C0.12935 10.381 0.141445 8.11655 0.0491178 5.03303C-0.00919404 3.10076 0.578816 1.68578 1.81308 0.788115C3.38022 -0.345384 5.98238 0.0654074 8.46064 0.103444C8.60244 0.105443 8.73778 0.166438 8.83736 0.273222C8.93695 0.380005 8.99276 0.523986 8.99272 0.673997C9.00729 6.56718 8.99998 12.4604 8.97083 18.3535C8.96111 19.6772 8.75948 20.6408 8.36587 21.2443C6.87163 23.5494 3.72278 22.956 0.428159 22.8647C0.194912 22.8596 0.0783022 22.7328 0.0783022 22.4843V15.5236C0.0783022 15.1027 0.277495 14.9277 0.67596 14.9987C3.70818 15.5464 8.08888 15.8127 8.26382 12.0851C8.32699 10.8374 8.30758 9.53152 8.20554 8.16726C8.19633 8.03878 8.14079 7.91871 8.05018 7.8312C7.95958 7.7437 7.84059 7.69525 7.71714 7.69561H5.6325Z" fill="#A68B7F"/>
<path d="M17.6536 13.6406C15.3318 14.097 12.6372 14.9109 12.1571 11.2902C11.9923 10.0428 13.4829 8.94748 14.3715 8.83338C15.112 8.74211 16.1487 8.97029 17.4816 9.51795C17.5323 9.53915 17.5867 9.54806 17.641 9.54405C17.6953 9.54004 17.7481 9.52321 17.7955 9.49478C17.8429 9.46635 17.8837 9.42704 17.9149 9.37972C17.9462 9.33241 17.9671 9.27829 17.9761 9.22131L18.0335 8.83338C18.086 8.47842 17.9498 8.25276 17.6249 8.15641C15.0546 7.38056 12.6444 7.49466 10.3942 8.4987C10.184 8.59505 10.0766 8.51898 10.0718 8.27051C10.036 6.2396 9.59882 2.27667 11.4047 0.930336C13.0458 -0.279081 16.3494 -0.012867 18.4849 0.124048C18.6186 0.131837 18.7444 0.193765 18.8364 0.297065C18.9284 0.400366 18.9796 0.537181 18.9794 0.679324C19.0128 10.9074 19.0056 16.995 18.9578 18.9423C18.8432 23.8484 13.6836 22.9813 10.5305 22.8748C10.4075 22.8708 10.2908 22.8162 10.2052 22.7225C10.1196 22.6288 10.0717 22.5033 10.0718 22.3728V14.5762C10.0718 14.2314 10.2127 14.1452 10.4946 14.3176C12.1858 15.3673 14.4503 15.6183 17.2881 15.0706C17.4545 15.0365 17.6091 14.9556 17.7352 14.8364C17.8614 14.7172 17.9545 14.5642 18.0048 14.3936L18.0764 14.1426C18.1958 13.7268 18.0549 13.5595 17.6536 13.6406Z" fill="#A68B7F"/>
<path d="M27.8551 8.25208C25.8039 7.56462 23.6354 7.87779 21.4523 7.84724C21.1886 7.84215 21.0543 7.70211 21.0495 7.42712C20.9615 4.05856 20.5805 0.0101827 24.7343 0.00254422C26.6927 -0.00254808 28.2971 5.52676e-06 29.5474 0.0101901C29.816 0.0152824 29.9527 0.157865 29.9576 0.437942C30.0015 6.85424 30.0113 12.7027 29.9869 17.9835C29.9649 23.7734 25.3863 23.0172 21.5109 22.9103C21.3761 22.9083 21.2476 22.8502 21.153 22.7487C21.0584 22.6473 21.0054 22.5105 21.0055 22.3679V15.5239C21.0055 15.2744 21.1251 15.1496 21.3644 15.1496C24.4046 15.1343 27.9064 15.7836 28.8001 13.5302C28.8777 13.3344 28.908 13.1192 28.8878 12.9079C28.8676 12.6965 28.7976 12.4968 28.6854 12.3304C28.5732 12.164 28.423 12.037 28.2509 11.9631C28.0788 11.8892 27.8914 11.8711 27.7086 11.9109C27.6353 11.9262 27.5303 11.8651 27.3936 11.7276C27.1835 11.4984 27.2104 11.31 27.4741 11.1623C28.1774 10.76 28.4338 9.94781 28.2434 8.72566C28.2043 8.48632 28.0749 8.32846 27.8551 8.25208Z" fill="#A68B7F"/>
<path d="M23.0001 9.40024C22.999 9.35115 23.0069 9.30231 23.0231 9.25651C23.0393 9.21071 23.0637 9.16886 23.0947 9.13334C23.1257 9.09782 23.1629 9.06931 23.204 9.04947C23.2451 9.02964 23.2894 9.01884 23.3343 9.01772L24.7029 9.00034C25.0418 8.99419 25.3687 9.07216 25.6118 9.21719C25.8549 9.36222 25.9944 9.56248 25.9998 9.77408V10.1566C26.0026 10.2619 25.972 10.3668 25.9099 10.4653C25.8477 10.5639 25.7552 10.6541 25.6376 10.7309C25.5201 10.8076 25.3799 10.8693 25.2249 10.9125C25.07 10.9557 24.9034 10.9795 24.7347 10.9825L23.3661 10.9999C23.3211 11.0011 23.2765 10.9925 23.2346 10.9748C23.1926 10.9571 23.1543 10.9305 23.1218 10.8966C23.0893 10.8627 23.0632 10.8221 23.0451 10.7772C23.0269 10.7322 23.0171 10.6838 23.016 10.6347L23.0001 9.40024Z" fill="#A68B7F"/>
<path d="M23.0003 12.4324C22.9984 12.3852 23.0061 12.3382 23.0231 12.2939C23.0401 12.2497 23.066 12.2091 23.0993 12.1744C23.1327 12.1398 23.1728 12.1118 23.2173 12.0921C23.2619 12.0724 23.31 12.0614 23.359 12.0596L24.2918 12.0044C24.5081 11.9929 24.7238 12.0041 24.9262 12.0375C25.1286 12.0709 25.3138 12.1257 25.4712 12.1988C25.6286 12.272 25.755 12.362 25.8432 12.4637C25.9314 12.5654 25.9796 12.6767 25.985 12.7913L25.9993 12.9984C26.0116 13.2287 25.8507 13.4583 25.5521 13.6369C25.2534 13.8156 24.8414 13.9285 24.4066 13.9511L23.4667 13.9994C23.4176 14.0022 23.3685 13.9956 23.3221 13.9801C23.2758 13.9646 23.233 13.9405 23.1964 13.9091C23.1597 13.8776 23.1299 13.8396 23.1085 13.797C23.0872 13.7545 23.0748 13.7083 23.072 13.6611L23.0003 12.4324Z" fill="#A68B7F"/>
</svg>
