<svg width="80" height="24" viewBox="0 0 80 24" fill="none" xmlns="http://www.w3.org/2000/svg">
<path d="M48.0045 5.20819C47.8536 1.31036 51.5333 -0.696738 54.8825 0.219544C55.0558 0.266913 55.2127 0.362006 55.3358 0.494244C55.4589 0.626482 55.5433 0.79068 55.5796 0.968567L55.7521 1.76123C55.7669 1.82742 55.7646 1.89636 55.7452 1.96134C55.7259 2.02632 55.6902 2.08513 55.6417 2.132C55.5932 2.17888 55.5335 2.21223 55.4685 2.22882C55.4034 2.24541 55.3352 2.24466 55.2706 2.22664C54.1734 1.94546 53.5313 1.8097 53.3445 1.8194C51.4471 1.94302 49.9162 3.09202 49.9953 5.13547C50.0744 7.16438 51.6843 8.18974 53.5888 8.16065C53.7757 8.16065 54.4057 7.97401 55.479 7.60071C55.5418 7.57755 55.6094 7.57119 55.6754 7.58225C55.7413 7.59332 55.8033 7.62142 55.8554 7.66385C55.9074 7.70627 55.9478 7.76158 55.9725 7.82441C55.9972 7.88724 56.0055 7.95548 55.9965 8.02249L55.8887 8.83696C55.8644 9.01582 55.7918 9.18444 55.679 9.32429C55.5661 9.46413 55.4174 9.56977 55.249 9.62961C51.9789 10.815 48.1554 9.10602 48.0045 5.20819Z" fill="#A68B7F"/>
<path d="M5.02254 4.19745C5.05752 4.19745 5.09001 4.17553 5.11999 4.13168C5.94457 2.92831 6.76915 1.73468 7.59373 0.550797C7.75325 0.324781 7.98765 0.163787 8.25339 0.0977098C8.60321 0.00514296 9.03799 -0.0216532 9.55772 0.0173224C9.67846 0.0265367 9.79115 0.0806266 9.87318 0.16873C9.95521 0.256834 10.0005 0.37244 10 0.492343V9.53953C10 9.64613 9.95577 9.74837 9.87704 9.82375C9.79832 9.89912 9.69154 9.94147 9.58021 9.94147H8.19342C8.13179 9.94147 8.07268 9.9176 8.0291 9.87512C7.98552 9.83263 7.96104 9.77501 7.96104 9.71492V3.86859C7.96157 3.82411 7.94773 3.78058 7.92148 3.74419C7.89523 3.7078 7.8579 3.6804 7.81477 3.66585C7.77165 3.65129 7.72493 3.65034 7.68122 3.66312C7.63751 3.6759 7.59903 3.70176 7.57124 3.73705C6.98654 4.48245 6.40683 5.24735 5.83213 6.03173C5.57226 6.38738 5.3074 6.56522 5.03753 6.56522C4.77267 6.56522 4.5078 6.38982 4.24294 6.03904C3.65824 5.26441 3.06854 4.50682 2.47384 3.76628C2.44569 3.73041 2.40652 3.70424 2.36204 3.69159C2.31756 3.67895 2.2701 3.6805 2.22658 3.696C2.18306 3.7115 2.14576 3.74015 2.12012 3.77777C2.09448 3.81539 2.08184 3.86002 2.08404 3.90514L2.15901 9.75146C2.15904 9.8103 2.13559 9.86685 2.09361 9.90913C2.05164 9.95141 1.99444 9.97611 1.93412 9.97801L0.547329 9.99993C0.492196 10.0009 0.437407 9.99147 0.386093 9.97217C0.334778 9.95286 0.287944 9.92405 0.248265 9.88741C0.208586 9.85076 0.17684 9.80698 0.15484 9.75858C0.13284 9.71017 0.121017 9.65809 0.120048 9.6053L0.000109318 0.558112C-0.00247741 0.438104 0.040924 0.321648 0.121583 0.232168C0.202243 0.142689 0.31418 0.0868175 0.434888 0.075787C0.954623 0.0319395 1.3894 0.0538606 1.73922 0.141556C2.00546 0.202302 2.24244 0.358058 2.40638 0.580035C3.24595 1.75417 4.08802 2.93805 4.93259 4.13168C4.96257 4.17553 4.99256 4.19745 5.02254 4.19745Z" fill="#A68B7F"/>
<path d="M75.9197 3.43352C75.9606 3.45949 76.0073 3.47309 76.0549 3.47294C76.1025 3.47278 76.1494 3.45888 76.1908 3.43264C76.2322 3.4064 76.2666 3.36875 76.2906 3.32352C76.3146 3.27828 76.3273 3.22708 76.3274 3.17509V0.642397C76.3274 0.558036 76.343 0.474503 76.3732 0.396563C76.4034 0.318624 76.4477 0.247811 76.5036 0.188158C76.5594 0.128506 76.6257 0.0811822 76.6986 0.0488986C76.7716 0.016615 76.8498 0 76.9287 0H77.2881C77.4769 0 77.658 0.080908 77.7915 0.224922C77.925 0.368937 78 0.564255 78 0.767922V9.5474C78.0003 9.61047 77.9882 9.6729 77.9644 9.73065C77.9407 9.7884 77.9059 9.84018 77.8622 9.88264C77.8186 9.9251 77.7671 9.9573 77.711 9.97714C77.655 9.99698 77.5957 10.004 77.5369 9.99781C76.8527 9.91659 76.5348 9.44402 75.5326 9.75414C71.7521 10.906 69.6925 6.77105 71.918 3.83963C72.0407 3.67438 72.1966 3.54064 72.3741 3.44829C73.6504 2.77389 74.8323 2.76896 75.9197 3.43352ZM76.0572 5.12502C75.8963 4.93142 75.7004 4.77445 75.4806 4.66309C75.2607 4.55173 75.0214 4.48814 74.7761 4.47598C74.5308 4.46382 74.2845 4.50331 74.0511 4.5922C73.8177 4.68109 73.6019 4.81763 73.4159 4.99403C73.2299 5.17043 73.0775 5.38324 72.9672 5.6203C72.857 5.85736 72.7911 6.11403 72.7734 6.37567C72.7556 6.6373 72.7864 6.89877 72.8639 7.14514C72.9413 7.39152 73.064 7.61798 73.2249 7.81159C73.3858 8.00519 73.5818 8.16217 73.8016 8.27353C74.0214 8.38489 74.2608 8.44847 74.506 8.46063C74.7513 8.47279 74.9977 8.43331 75.2311 8.34442C75.4645 8.25553 75.6803 8.11898 75.8662 7.94257C76.0522 7.76618 76.2047 7.55337 76.3149 7.31631C76.4252 7.07925 76.491 6.82258 76.5088 6.56094C76.5265 6.29931 76.4957 6.03784 76.4183 5.79146C76.3408 5.54509 76.2181 5.31863 76.0572 5.12502Z" fill="#A68B7F"/>
<path d="M28.4846 1.48714C28.6326 1.30181 28.839 1.15875 29.0766 1.07685C29.3142 0.994943 29.5718 0.978047 29.8154 1.02838C30.0589 1.07872 30.2771 1.19392 30.4409 1.35878C30.6048 1.52365 30.7067 1.73042 30.7332 1.95181C30.7385 2.03283 30.7227 2.19011 30.6857 2.42364C30.6641 2.55383 30.6978 2.68659 30.78 2.7953C30.8623 2.90401 30.987 2.98064 31.1291 3.00984C31.372 3.0575 31.6517 3.06227 31.9684 3.02414C32.159 2.9983 32.353 3.03877 32.5107 3.1372C32.6683 3.23563 32.7775 3.38452 32.8156 3.55316L32.9027 3.9535C32.9215 4.03637 32.9196 4.12195 32.8973 4.2041C32.875 4.28624 32.8328 4.36289 32.7737 4.42853C32.7146 4.49417 32.6402 4.54716 32.5557 4.58369C32.4712 4.62023 32.3788 4.63939 32.2851 4.6398H31.1687C31.0364 4.6398 30.9096 4.68724 30.816 4.7717C30.7225 4.85616 30.6699 4.97072 30.6699 5.09017V7.82104C30.6701 7.86398 30.68 7.90643 30.6991 7.94578C30.7182 7.98512 30.746 8.02052 30.7808 8.0498C31.0552 8.30239 31.4195 8.32623 31.8734 8.12129C31.9912 8.06859 32.1246 8.0506 32.2551 8.06982C32.3856 8.08903 32.5068 8.14449 32.6019 8.22852C33.0664 8.64316 33.1244 9.01252 32.776 9.3366C32.4167 9.67419 31.9305 9.89584 31.3835 9.97132C30.8366 10.0468 30.2556 9.97244 29.7198 9.75838C28.0491 9.10068 28.4371 6.33408 28.4846 5.19741C28.4878 5.12836 28.4754 5.05944 28.4481 4.99488C28.4208 4.93032 28.3792 4.87147 28.3258 4.82194C28.2725 4.77241 28.2085 4.73324 28.1377 4.70684C28.067 4.68043 27.991 4.66735 27.9145 4.66839C27.8564 4.66839 27.7957 4.66839 27.7324 4.66839C27.5638 4.66908 27.4002 4.6158 27.27 4.51784C27.1398 4.41988 27.0513 4.28342 27.0198 4.13222C26.967 3.87963 27.0198 3.60797 27.1781 3.31725C27.3101 3.06942 27.545 2.96457 27.8828 3.0027C28.1045 3.02653 28.2629 3.00508 28.3579 2.93836C28.4404 2.88071 28.5028 2.80295 28.5379 2.71427C28.573 2.6256 28.5792 2.52971 28.5559 2.43794C28.4186 1.91846 28.3949 1.60152 28.4846 1.48714Z" fill="#A68B7F"/>
<path d="M35.2891 7.00063C35.2309 7.00109 35.1745 7.01946 35.1284 7.05293C35.0824 7.08641 35.0493 7.13315 35.0342 7.18599C35.0191 7.23883 35.0228 7.29487 35.0448 7.34553C35.0668 7.39619 35.1059 7.43867 35.156 7.46649L36.5463 8.2244C36.845 8.38491 37.1978 8.4298 37.5298 8.34955L39.068 7.98103C39.1145 7.96872 39.1632 7.96545 39.2112 7.97143C39.2592 7.9774 39.3056 7.9925 39.3477 8.01582C39.3897 8.03914 39.4265 8.07022 39.456 8.10723C39.4854 8.14424 39.5069 8.18645 39.5191 8.23134L39.6744 8.80846C39.7091 8.93763 39.6939 9.07418 39.6316 9.19385C39.5693 9.31351 39.464 9.40855 39.3342 9.46206C32.6934 12.2086 30.5193 3.57271 36.4945 3.00951C36.7638 2.98651 37.0361 3.0053 37.3006 3.06512C39.0458 3.48695 39.9455 4.64814 39.9998 6.54868C40.0017 6.60736 39.9912 6.66582 39.9686 6.72058C39.9461 6.77535 39.9121 6.82529 39.8687 6.86745C39.8252 6.90962 39.7732 6.94313 39.7156 6.96601C39.6581 6.98889 39.5963 7.00066 39.5339 7.00063H35.2891ZM35.2447 5.79078L37.9217 5.70734C37.9354 5.70645 37.9486 5.70306 37.9608 5.69733C37.9731 5.69161 37.9839 5.68367 37.9929 5.67398C38.0018 5.66429 38.0086 5.65303 38.0129 5.64085C38.0172 5.62868 38.0189 5.61583 38.0179 5.60304V5.52656C38.0066 5.25627 37.8532 5.00204 37.5913 4.81958C37.3293 4.63711 36.9801 4.54129 36.6202 4.5531H36.4575C36.2783 4.55879 36.1017 4.59106 35.938 4.64803C35.7743 4.705 35.6267 4.78557 35.5037 4.88508C35.3806 4.9846 35.2846 5.1011 35.2212 5.22789C35.1577 5.35469 35.128 5.48927 35.1338 5.6239L35.1412 5.70039C35.1431 5.72498 35.1548 5.74799 35.174 5.76477C35.1932 5.78154 35.2185 5.79084 35.2447 5.79078Z" fill="#A68B7F"/>
<path d="M16.1677 5.9284C16.2158 5.93922 16.266 5.93374 16.3107 5.91277C16.3555 5.8918 16.3922 5.85649 16.4155 5.81223C16.4387 5.76796 16.4472 5.71716 16.4395 5.66756C16.4318 5.61796 16.4085 5.57226 16.373 5.53744L15.764 4.91608C15.6349 4.78468 15.4768 4.68691 15.3029 4.63101C15.1289 4.57512 14.9444 4.56274 14.7648 4.59494L13.0061 4.90911C12.9854 4.91311 12.9641 4.91283 12.9435 4.90829C12.9229 4.90374 12.9034 4.89503 12.8862 4.88266C12.869 4.87029 12.8543 4.85452 12.8432 4.83627C12.8321 4.81803 12.8246 4.79769 12.8213 4.77646L12.6434 3.77112C12.6379 3.73081 12.645 3.68997 12.6635 3.65473C12.682 3.61949 12.711 3.59175 12.746 3.57564C15.05 2.5517 16.7859 2.89379 17.9538 4.60192C18.0964 4.81071 18.1728 5.06167 18.1728 5.32101V7.37356C18.1728 7.50192 18.1976 7.62903 18.2457 7.74762C18.2939 7.86621 18.3644 7.97396 18.4534 8.06472L18.7203 8.33701C18.8755 8.49292 18.9726 8.69909 18.995 8.92011C19.0174 9.14113 18.9637 9.36321 18.8431 9.54822C18.7224 9.73323 18.5424 9.86961 18.334 9.93396C18.1255 9.99831 17.9016 9.98661 17.7006 9.90085L16.6741 9.46801C16.5709 9.42423 16.4596 9.40346 16.3475 9.40707C16.2354 9.41068 16.1251 9.4386 16.024 9.48895C14.0873 10.4454 12.0343 10.215 12.0001 7.45036C11.9961 7.14998 12.0938 6.85403 12.2787 6.60632C12.4636 6.35862 12.7258 6.17232 13.0266 6.07501C14.0486 5.74921 15.0956 5.70033 16.1677 5.9284ZM16.5362 7.70449C16.528 7.48616 16.3775 7.28237 16.1177 7.13794C15.858 6.99352 15.5104 6.92029 15.1513 6.93436C14.7922 6.94844 14.4511 7.04867 14.203 7.21299C13.9549 7.37732 13.8201 7.59228 13.8283 7.8106C13.8366 8.02892 13.9871 8.23271 14.2468 8.37714C14.5065 8.52157 14.8542 8.5948 15.2133 8.58073C15.5724 8.56665 15.9135 8.46643 16.1616 8.3021C16.4097 8.13778 16.5445 7.92281 16.5362 7.70449Z" fill="#A68B7F"/>
<path d="M20.2971 7.70814C20.9915 8.28082 22.0855 8.51788 23.5792 8.4193C23.7052 8.40978 23.8236 8.35898 23.9138 8.27578C24.004 8.19258 24.0603 8.08225 24.0728 7.96406C24.0853 7.84586 24.0532 7.72728 23.9822 7.62904C23.9111 7.53079 23.8056 7.45911 23.6841 7.42649C21.4361 6.8632 19.0383 6.83504 20.3945 3.98337C20.4875 3.7873 20.6292 3.6148 20.8077 3.48012C20.9862 3.34544 21.1964 3.25245 21.4211 3.20883C22.9273 2.90606 26.4341 2.58921 25.7972 4.92688C25.7794 4.988 25.7451 5.04375 25.6976 5.08867C25.6501 5.1336 25.5909 5.16617 25.526 5.1832C25.4611 5.20023 25.3925 5.20114 25.3271 5.18583C25.2617 5.17052 25.2016 5.13953 25.1528 5.09587C24.4534 4.46686 23.5967 4.32838 22.5826 4.68043C22.4803 4.71481 22.3929 4.77986 22.3339 4.86553C22.2749 4.95121 22.2476 5.05275 22.2561 5.15448C22.2646 5.25621 22.3086 5.35248 22.3811 5.42842C22.4537 5.50436 22.5508 5.55575 22.6575 5.57466C23.5817 5.73896 24.5333 6.09336 25.5124 6.63788C25.6137 6.69326 25.7013 6.76831 25.7698 6.85809C25.8382 6.94788 25.8858 7.05039 25.9096 7.15893C26.6889 10.4612 22.2304 10.3204 20.2447 9.52476C20.1757 9.49711 20.1168 9.45099 20.0755 9.39214C20.0342 9.33329 20.0123 9.26432 20.0124 9.19382V7.82783C20.013 7.7971 20.0229 7.76717 20.041 7.74153C20.059 7.71589 20.0844 7.6956 20.1143 7.68305C20.1442 7.67049 20.1772 7.66619 20.2096 7.67063C20.242 7.67507 20.2723 7.68808 20.2971 7.70814Z" fill="#A68B7F"/>
<path d="M44.7715 3.81561C45.0743 3.41149 45.6145 3.14209 46.3922 3.00738C46.4472 2.99717 46.5039 2.99756 46.559 3.00852C46.614 3.01947 46.6661 3.04078 46.7122 3.07114C46.7583 3.1015 46.7975 3.14028 46.8272 3.18514C46.857 3.23 46.8768 3.27999 46.8854 3.33211L46.995 4.09704C47.0049 4.16348 47 4.23109 46.9805 4.29556C46.961 4.36004 46.9273 4.41998 46.8817 4.47156C46.836 4.52314 46.7794 4.56524 46.7153 4.59518C46.6513 4.62512 46.5812 4.64226 46.5096 4.64549C45.5388 4.68879 44.7976 5.12898 44.2861 5.96608C44.2041 6.10342 44.161 6.25981 44.1609 6.4207V9.63196C44.1609 9.72957 44.118 9.82318 44.0416 9.8922C43.9653 9.96122 43.8617 10 43.7537 10H42.321C42.2788 10 42.2371 9.99234 42.1982 9.97747C42.1592 9.9626 42.1238 9.94082 42.094 9.91334C42.0642 9.88587 42.0406 9.85325 42.0244 9.81736C42.0083 9.78146 42 9.74298 42 9.70413V3.47644C41.9996 3.36377 42.0453 3.25512 42.1281 3.17218C42.2108 3.08923 42.3244 3.03812 42.4463 3.02903C43.5789 2.92319 44.1922 3.15171 44.2861 3.71458C44.2937 3.76384 44.3174 3.80981 44.354 3.84638C44.3906 3.88296 44.4384 3.90842 44.491 3.91938C44.5437 3.93034 44.5987 3.92628 44.6488 3.90775C44.6989 3.88922 44.7417 3.85708 44.7715 3.81561Z" fill="#A68B7F"/>
<path d="M58.3565 5.03341C58.3133 5.05336 58.2655 5.0637 58.2173 5.06355C58.169 5.0634 58.1217 5.05277 58.0793 5.03256C58.0369 5.01234 58.0007 4.98313 57.9737 4.94742C57.9467 4.9117 57.9298 4.87053 57.9244 4.82739L57.7778 3.83276C57.7595 3.70735 57.7937 3.58004 57.8738 3.47608C57.9538 3.37211 58.0738 3.2991 58.2099 3.27151C60.3088 2.87367 63.897 2.50423 64.0128 5.3318C64.0436 6.00909 64.0488 6.64612 64.0282 7.2429C64.0132 7.52568 64.0882 7.80707 64.2443 8.0528L64.9156 9.11847C64.9776 9.21528 65.0065 9.32698 64.9988 9.43912C64.991 9.55126 64.9469 9.65868 64.872 9.74746C64.7972 9.83624 64.6952 9.90229 64.5791 9.93708C64.4631 9.97187 64.3384 9.97379 64.2211 9.94259L62.3383 9.45948C62.197 9.42705 62.0498 9.43198 61.9139 9.47369C59.8381 10.106 58.0016 10.6033 57.1141 8.26594C56.8569 7.58391 57.0344 7.00372 57.6466 6.52535C58.7423 5.66335 60.0001 5.45731 61.42 5.90726C61.5203 5.94279 61.6314 5.94325 61.7321 5.90855C61.8327 5.87385 61.9161 5.80639 61.9665 5.71892C62.0168 5.63146 62.0307 5.53005 62.0053 5.43385C61.98 5.33765 61.9172 5.25333 61.829 5.19681C60.8001 4.49584 59.6426 4.44138 58.3565 5.03341ZM61.96 7.70774C61.9582 7.59113 61.9198 7.47612 61.8468 7.36931C61.7738 7.26249 61.6677 7.16595 61.5346 7.08519C61.4016 7.00443 61.2441 6.94103 61.0711 6.89862C60.8982 6.85621 60.7132 6.83561 60.5268 6.83801C60.1503 6.84286 59.7906 6.94107 59.5269 7.11102C59.2632 7.28097 59.117 7.50876 59.1206 7.74426C59.1224 7.86087 59.1609 7.97586 59.2338 8.08268C59.3068 8.1895 59.4129 8.28605 59.546 8.36681C59.679 8.44757 59.8365 8.51096 60.0095 8.55337C60.1824 8.59578 60.3674 8.61638 60.5538 8.61398C60.9303 8.60913 61.29 8.51093 61.5537 8.34098C61.8174 8.17102 61.9636 7.94324 61.96 7.70774Z" fill="#A68B7F"/>
<path d="M68.376 4.21744C68.7387 3.52735 69.432 3.12281 70.456 3.00383C70.5235 2.99572 70.5922 3.00053 70.6575 3.01794C70.7228 3.03535 70.7831 3.06496 70.8346 3.10481C70.886 3.14465 70.9274 3.19381 70.9559 3.24902C70.9845 3.30423 70.9995 3.36423 71 3.42502V4.18175C71.0003 4.29375 70.9634 4.40354 70.8937 4.49746C70.824 4.59139 70.7247 4.66531 70.608 4.71003L68.512 5.52387C68.3433 5.5892 68.1996 5.69631 68.0987 5.83203C67.9977 5.96775 67.944 6.12615 67.944 6.28775V9.33607C67.944 9.51216 67.8656 9.68103 67.7261 9.80554C67.5866 9.93004 67.3973 10 67.2 10H66.8C66.5878 10 66.3843 9.92479 66.2343 9.79091C66.0843 9.65702 66 9.47544 66 9.28611V3.89619C65.9992 3.71524 66.0685 3.5396 66.1961 3.39898C66.3237 3.25835 66.5018 3.16135 66.7004 3.12441C66.8989 3.08747 67.1056 3.11285 67.2855 3.19624C67.4655 3.27964 67.6077 3.41593 67.688 3.58208L68 4.21744C68.0169 4.24921 68.0435 4.27606 68.0768 4.29486C68.11 4.31366 68.1486 4.32364 68.188 4.32364C68.2274 4.32364 68.266 4.31366 68.2993 4.29486C68.3325 4.27606 68.3592 4.24921 68.376 4.21744Z" fill="#A68B7F"/>
<path d="M6.96148 16.5431C6.07377 15.9635 4.76817 15.7703 3.04468 15.9635C2.85993 15.987 2.68972 16.0695 2.56333 16.1971C2.43693 16.3246 2.36225 16.4891 2.35211 16.6624C2.34197 16.8356 2.39701 17.0067 2.50778 17.1462C2.61854 17.2858 2.7781 17.385 2.95902 17.427C4.46968 17.7458 5.97254 18.4364 7.46763 19.499C7.70274 19.6621 7.86154 19.9005 7.91148 20.1655C8.75246 24.4617 3.39509 24.4762 0.576234 23.4185C0.406056 23.3538 0.2604 23.2435 0.157792 23.1016C0.0551827 22.9597 0.000259333 22.7926 6.66772e-06 22.6215V21.3102C-0.000357311 21.2604 0.0141871 21.2115 0.042009 21.169C0.0698308 21.1265 0.10983 21.092 0.157527 21.0695C0.205224 21.0469 0.258733 21.0371 0.312056 21.0413C0.36538 21.0454 0.416411 21.0633 0.459433 21.0929C1.79878 22.013 4.87459 23.049 5.91804 21.0277C5.94325 20.9791 5.95719 20.9261 5.95893 20.8722C5.96067 20.8183 5.95018 20.7646 5.92814 20.7147C5.9061 20.6648 5.873 20.6198 5.83101 20.5826C5.78902 20.5454 5.73907 20.5168 5.68443 20.4988L1.35492 19.0353C1.18162 18.9785 1.02812 18.8782 0.91107 18.7455C0.0337484 17.7941 -0.0648833 16.6421 0.615171 15.2898C0.731384 15.0639 0.91941 14.8788 1.15246 14.7609C3.00055 13.8336 4.81749 13.7539 6.60328 14.5218C6.84722 14.6258 7.05394 14.7924 7.19888 15.0017C7.34382 15.211 7.42088 15.4543 7.4209 15.7027V16.3258C7.42127 16.3756 7.40672 16.4245 7.3789 16.467C7.35108 16.5095 7.31108 16.544 7.26338 16.5666C7.21569 16.5891 7.16218 16.5989 7.10885 16.5947C7.05553 16.5906 7.0045 16.5727 6.96148 16.5431Z" fill="#A68B7F"/>
<path d="M49.0111 19.0795C49.055 21.1084 50.6626 22.1596 52.5699 22.1669C52.7599 22.1669 53.3981 21.9905 54.4845 21.6376C54.5482 21.617 54.6161 21.613 54.6817 21.6261C54.7473 21.6391 54.8086 21.6687 54.8597 21.712C54.9109 21.7554 54.9502 21.8111 54.9741 21.874C54.9979 21.9368 55.0055 22.0047 54.9961 22.0714L54.8719 22.88C54.8456 23.0596 54.7702 23.2283 54.654 23.3672C54.5379 23.5061 54.3856 23.6098 54.2142 23.6666C50.9111 24.7913 47.0892 23.0197 47.0015 19.1236C46.9138 15.2201 50.648 13.2721 54.0022 14.2498C54.1765 14.2985 54.3339 14.3952 54.4565 14.5289C54.5792 14.6627 54.6623 14.8282 54.6965 15.0069L54.8572 15.8082C54.8693 15.8741 54.8647 15.9419 54.8437 16.0055C54.8227 16.0691 54.7861 16.1263 54.7372 16.1718C54.6883 16.2172 54.6288 16.2495 54.5642 16.2657C54.4996 16.2818 54.432 16.2812 54.3676 16.264C53.2666 15.9601 52.6211 15.8107 52.4311 15.8156C50.5165 15.9111 48.96 17.0358 49.0111 19.0795Z" fill="#A68B7F"/>
<path d="M70.6197 17.6061V14.5413C70.6197 14.3977 70.6751 14.2601 70.7737 14.1585C70.8723 14.057 71.0061 14 71.1455 14H71.4523C71.5975 14 71.7368 14.0602 71.8396 14.1675C71.9423 14.2747 72 14.4201 72 14.5718V23.3317C72 23.4405 71.9635 23.5459 71.8968 23.6294C71.83 23.713 71.7373 23.7695 71.6348 23.7891C71.3768 23.8298 71.2405 23.8349 71.2258 23.8044C71.0262 23.3876 70.6343 23.2885 70.05 23.5071C67.9174 24.3152 66.4811 24.1297 65.7411 22.9505C63.4989 19.3825 66.727 15.0369 70.3202 17.7662C70.3486 17.7871 70.3818 17.7995 70.4164 17.802C70.4509 17.8046 70.4855 17.7972 70.5164 17.7807C70.5472 17.7643 70.5731 17.7393 70.5914 17.7085C70.6096 17.6777 70.6194 17.6423 70.6197 17.6061ZM70.8461 20.5261C70.8461 19.9316 70.6199 19.3615 70.2172 18.9412C69.8145 18.5208 69.2684 18.2847 68.6989 18.2847C68.1294 18.2847 67.5833 18.5208 67.1806 18.9412C66.7779 19.3615 66.5517 19.9316 66.5517 20.5261C66.5517 21.1206 66.7779 21.6907 67.1806 22.111C67.5833 22.5314 68.1294 22.7675 68.6989 22.7675C69.2684 22.7675 69.8145 22.5314 70.2172 22.111C70.6199 21.6907 70.8461 21.1206 70.8461 20.5261Z" fill="#A68B7F"/>
<path d="M11.2782 20.96C11.2169 20.9529 11.1549 20.9664 11.1031 20.998C11.0513 21.0297 11.0131 21.0775 10.9952 21.133C10.9773 21.1885 10.9808 21.2481 11.0052 21.3014C11.0295 21.3547 11.0731 21.3983 11.1283 21.4243L12.4998 22.2124C12.7949 22.3797 13.1471 22.4328 13.4817 22.3602L15.0331 22.0295C15.1273 22.0088 15.2266 22.0245 15.3094 22.0732C15.3921 22.122 15.4518 22.1998 15.4753 22.2898L15.6177 22.8738C15.6495 23.0042 15.6307 23.141 15.5648 23.2596C15.4989 23.3783 15.3901 23.471 15.2579 23.5211C8.53507 26.1034 6.59391 17.4208 12.5898 17.0057C12.8586 16.988 13.1295 17.0118 13.3917 17.076C15.1305 17.5404 15.9999 18.7225 15.9999 20.6222C16.001 20.6813 15.9892 20.74 15.9654 20.7947C15.9416 20.8494 15.9062 20.8989 15.8613 20.9404C15.8164 20.9818 15.7631 21.0143 15.7045 21.0358C15.6458 21.0573 15.5832 21.0674 15.5203 21.0655L11.2782 20.96ZM11.1658 19.8342L13.8414 19.6583C13.864 19.6565 13.8849 19.6468 13.9002 19.6312C13.9155 19.6155 13.9239 19.5951 13.9239 19.5738V19.5035C13.914 19.3706 13.8691 19.2412 13.7917 19.1229C13.7144 19.0046 13.6061 18.8997 13.4732 18.8141C13.3402 18.7284 13.1851 18.6639 13.0168 18.624C12.8485 18.5841 12.6703 18.5698 12.4923 18.5818L12.3425 18.5888C11.9847 18.6131 11.6498 18.7422 11.411 18.9479C11.1722 19.1536 11.049 19.4191 11.0683 19.6864V19.7568C11.0693 19.7679 11.0725 19.7787 11.078 19.7886C11.0834 19.7985 11.0908 19.8073 11.0999 19.8145C11.1089 19.8217 11.1194 19.8272 11.1307 19.8305C11.142 19.8339 11.1539 19.8351 11.1658 19.8342Z" fill="#A68B7F"/>
<path d="M18.9667 20.5334C19.0029 22.2051 21.0923 22.5508 22.3287 22.0147C22.3808 21.9912 22.4378 21.9796 22.4953 21.9809C22.5527 21.9822 22.6091 21.9964 22.66 22.0223C22.711 22.0482 22.7552 22.0851 22.7893 22.1302C22.8233 22.1754 22.8463 22.2276 22.8565 22.2827L22.9938 23.0234C23.0105 23.1219 22.9931 23.2228 22.9446 23.3098C22.8961 23.3968 22.8192 23.4649 22.7263 23.5031C20.2344 24.5047 18.4678 23.9921 17.4267 21.9653C17.152 21.4292 17.0098 20.9636 17.0001 20.5686C16.9953 20.1736 17.1182 19.7033 17.3689 19.1578C18.3232 17.0934 20.0657 16.5103 22.5962 17.4085C22.6917 17.4427 22.7723 17.5081 22.8248 17.594C22.8774 17.6799 22.8987 17.7811 22.8854 17.8811L22.7769 18.6217C22.77 18.6776 22.75 18.7311 22.7185 18.7782C22.6869 18.8253 22.6447 18.8647 22.5951 18.8933C22.5455 18.922 22.4898 18.9391 22.4323 18.9434C22.3748 18.9476 22.3171 18.939 22.2636 18.918C21.0056 18.4242 18.9306 18.8616 18.9667 20.5334Z" fill="#A68B7F"/>
<path d="M30.5022 23.88L28.9483 23.5769C28.8688 23.5584 28.7865 23.556 28.7069 23.5699L26.2026 23.9858C26.0643 24.0082 25.9228 24.0041 25.7866 23.9738C25.6504 23.9435 25.5225 23.8876 25.4106 23.8095C24.4652 23.1469 23.995 22.4796 24.0001 21.8076C24.0101 19.9184 24.0101 18.4804 24.0001 17.4935C23.9991 17.4309 24.0114 17.3687 24.0363 17.3106C24.0613 17.2525 24.0984 17.1996 24.1454 17.155C24.1924 17.1104 24.2485 17.0749 24.3103 17.0508C24.3721 17.0266 24.4384 17.0141 24.5054 17.0141H25.4332C25.5573 17.0141 25.6762 17.0602 25.7639 17.1421C25.8516 17.2241 25.9009 17.3353 25.9009 17.4512V20.9053C25.9012 21.0813 25.9407 21.2552 26.0168 21.4162C26.0929 21.5771 26.204 21.7215 26.343 21.8402C26.4821 21.9588 26.646 22.0492 26.8244 22.1055C27.0028 22.1617 27.1918 22.1827 27.3793 22.1671L27.6735 22.1459C28.011 22.1178 28.325 21.9727 28.5539 21.7393C28.7828 21.5058 28.91 21.2008 28.9106 20.8841V17.6415C28.9106 17.5459 28.9334 17.4515 28.9775 17.3652C29.0216 17.2789 29.0857 17.2029 29.1652 17.1428C29.2448 17.0826 29.3377 17.0399 29.4372 17.0176C29.5367 16.9954 29.6403 16.9942 29.7403 17.0141L30.3739 17.141C30.5513 17.1765 30.7102 17.2673 30.8242 17.3982C30.9382 17.5291 31.0002 17.6921 31 17.86V23.5064C31.0004 23.5631 30.987 23.6191 30.9608 23.6703C30.9345 23.7215 30.8962 23.7666 30.8485 23.8024C30.8008 23.8382 30.7449 23.8638 30.685 23.8772C30.6251 23.8906 30.5626 23.8916 30.5022 23.88Z" fill="#A68B7F"/>
<path d="M37.5385 18.9839C34.5692 18.3371 35.0462 21.9303 35.1077 23.6694C35.1087 23.7125 35.1005 23.7553 35.0836 23.7954C35.0666 23.8354 35.0413 23.872 35.0091 23.9028C34.9768 23.9336 34.9383 23.958 34.8958 23.9747C34.8533 23.9914 34.8077 24 34.7615 24H33.4C33.2939 24 33.1922 23.9606 33.1172 23.8905C33.0421 23.8205 33 23.7254 33 23.6263V17.5394C32.9995 17.4294 33.0431 17.3231 33.1227 17.2409C33.2022 17.1586 33.3119 17.1062 33.4308 17.0938C34.159 17.0268 34.6744 17.1633 34.9769 17.5035C35.0528 17.5912 35.1567 17.6544 35.274 17.684C35.3913 17.7137 35.5161 17.7083 35.6308 17.6688L37.4846 17.022C37.5429 17.0022 37.6054 16.9956 37.6669 17.0028C37.7283 17.01 37.7869 17.0307 37.8375 17.0632C37.8881 17.0957 37.9293 17.1389 37.9576 17.1893C37.9859 17.2397 38.0005 17.2957 38 17.3525V18.6389C38.0003 18.692 37.9877 18.7445 37.9632 18.7924C37.9387 18.8404 37.9029 18.8825 37.8585 18.9157C37.8141 18.9489 37.7623 18.9722 37.7069 18.984C37.6514 18.9959 37.5939 18.9958 37.5385 18.9839Z" fill="#A68B7F"/>
<path d="M40.289 21.0021C40.2306 21.0025 40.1739 21.021 40.1276 21.0547C40.0814 21.0883 40.0481 21.1353 40.0329 21.1885C40.0178 21.2416 40.0215 21.298 40.0436 21.3489C40.0657 21.3999 40.1049 21.4426 40.1553 21.4706L41.5522 22.2258C41.85 22.3861 42.2018 22.4312 42.5329 22.3517L44.071 21.9811C44.1634 21.958 44.2619 21.9707 44.3453 22.0165C44.4287 22.0623 44.4903 22.1374 44.5168 22.2258L44.6728 22.8062C44.7075 22.9333 44.693 23.0681 44.6319 23.187C44.5708 23.3059 44.4669 23.4013 44.3385 23.4565C37.7108 26.2186 35.5114 17.5826 41.4853 17.0092C41.7535 16.9866 42.0245 17.0055 42.2878 17.0652C44.0363 17.4848 44.9403 18.6432 44.9998 20.5406C45.0018 20.5996 44.9911 20.6584 44.9685 20.7135C44.9459 20.7685 44.9117 20.8188 44.868 20.8612C44.8244 20.9036 44.7721 20.9373 44.7143 20.9603C44.6565 20.9833 44.5944 20.9951 44.5317 20.9951L40.289 21.0021ZM40.2668 19.7923L42.6147 19.8483C42.658 19.8483 42.6996 19.8321 42.7303 19.8032C42.7609 19.7744 42.7781 19.7352 42.7781 19.6944L42.7856 19.6245C42.789 19.4957 42.7609 19.3675 42.7029 19.2471C42.645 19.1267 42.5583 19.0166 42.4479 18.9231C42.3374 18.8295 42.2054 18.7544 42.0593 18.702C41.9133 18.6495 41.7561 18.6209 41.5968 18.6176H41.3441C41.0235 18.6108 40.7135 18.7071 40.4823 18.8854C40.251 19.0637 40.1174 19.3094 40.1107 19.5686L40.1033 19.6385C40.1033 19.6793 40.1205 19.7184 40.1512 19.7473C40.1818 19.7761 40.2234 19.7923 40.2668 19.7923Z" fill="#A68B7F"/>
<path d="M56.0001 20.4738C56.0035 20.0142 56.1104 19.5597 56.3145 19.1364C56.5187 18.7131 56.8162 18.3292 57.1901 18.0067C57.5639 17.6841 58.0068 17.4292 58.4934 17.2565C58.98 17.0838 59.5008 16.9967 60.0261 17.0001C60.5514 17.0035 61.0708 17.0975 61.5548 17.2765C62.0388 17.4556 62.4778 17.7163 62.8468 18.0437C63.2158 18.3711 63.5076 18.7589 63.7054 19.1849C63.9033 19.6108 64.0033 20.0666 63.9999 20.5262C63.9965 20.9858 63.8897 21.4403 63.6855 21.8636C63.4813 22.2869 63.1838 22.6708 62.8099 22.9933C62.4361 23.3159 61.9932 23.5708 61.5066 23.7435C61.02 23.9162 60.4992 24.0033 59.9739 23.9999C59.4487 23.9965 58.9292 23.9025 58.4452 23.7235C57.9612 23.5444 57.5222 23.2837 57.1532 22.9563C56.7842 22.6288 56.4924 22.2411 56.2946 21.8151C56.0967 21.3892 55.9967 20.9334 56.0001 20.4738ZM58.5066 19.1904C58.1526 19.5453 57.9728 20.026 58.0068 20.5266C58.0408 21.0273 58.2859 21.5069 58.6881 21.86C59.0903 22.2131 59.6166 22.4107 60.1514 22.4094C60.6861 22.408 61.1855 22.2079 61.5395 21.8529C61.8936 21.498 62.0734 21.0173 62.0394 20.5166C62.0053 20.016 61.7603 19.5364 61.3581 19.1833C60.9559 18.8302 60.4295 18.6326 59.8948 18.6339C59.36 18.6353 58.8607 18.8354 58.5066 19.1904Z" fill="#A68B7F"/>
<path d="M75.6064 20.8008C75.5494 20.7999 75.4932 20.8152 75.4434 20.845C75.3936 20.8748 75.3519 20.9181 75.3225 20.9706C75.2931 21.0231 75.277 21.0829 75.2757 21.1442C75.2745 21.2055 75.2881 21.2661 75.3154 21.3199C76.0865 22.8876 77.4538 23.2464 79.4171 22.3964C79.4669 22.375 79.521 22.3668 79.5743 22.3727C79.6277 22.3785 79.6788 22.3982 79.723 22.4299C79.7672 22.4616 79.8033 22.5044 79.8279 22.5545C79.8525 22.6046 79.8649 22.6605 79.8641 22.7171V23.0301C79.8639 23.1637 79.8239 23.294 79.75 23.4023C79.6761 23.5106 79.572 23.5915 79.4525 23.6333C72.5408 26.0229 72.3704 15.9069 77.9765 17.0979C79.6157 17.4491 79.9067 18.8004 79.9989 20.3579C80.0029 20.4146 79.9959 20.4715 79.9784 20.5251C79.9609 20.5787 79.9332 20.6278 79.8973 20.6694C79.8613 20.711 79.8177 20.7441 79.7693 20.7667C79.7208 20.7893 79.6686 20.8009 79.6158 20.8008H75.6064ZM75.5993 19.8541L78.3526 19.8693C78.4354 19.8693 78.5148 19.8339 78.5734 19.7709C78.632 19.7079 78.6648 19.6225 78.6648 19.5334V19.4341C78.6657 19.2581 78.6301 19.0837 78.5599 18.9208C78.4896 18.7578 78.3863 18.6097 78.2557 18.4848C78.1252 18.36 77.97 18.2609 77.7991 18.1932C77.6281 18.1255 77.4449 18.0906 77.2598 18.0904H76.6921C76.3206 18.0901 75.9643 18.2297 75.701 18.4786C75.4377 18.7276 75.2888 19.0656 75.287 19.4189V19.5181C75.287 19.5622 75.2951 19.6059 75.3108 19.6467C75.3265 19.6874 75.3495 19.7245 75.3785 19.7557C75.4075 19.7869 75.4419 19.8116 75.4798 19.8285C75.5177 19.8454 75.5583 19.8541 75.5993 19.8541Z" fill="#A68B7F"/>
</svg>
