<svg width="26" height="16" viewBox="0 0 26 16" fill="none" xmlns="http://www.w3.org/2000/svg">
<path d="M9.05816 7.99991C9.06081 10.4247 10.0307 12.6248 11.9678 14.6003C11.9798 14.6119 11.9888 14.6263 11.9943 14.6422C11.9997 14.6581 12.0013 14.6752 11.999 14.6919C11.9966 14.7086 11.9905 14.7244 11.9809 14.7382C11.9714 14.7519 11.9587 14.7631 11.944 14.7708C9.00791 16.3864 6.27001 16.4094 3.7303 14.8398C1.4073 13.4028 0.00793678 10.8008 8.44748e-06 8.01615C-0.00395572 5.23148 1.3875 2.62541 3.70654 1.17625C6.23832 -0.40417 8.97623 -0.391987 11.9203 1.21278C11.9349 1.22049 11.9475 1.23168 11.9571 1.24542C11.9667 1.25916 11.9729 1.27504 11.9752 1.29173C11.9775 1.30843 11.9759 1.32545 11.9705 1.34138C11.9651 1.3573 11.956 1.37167 11.944 1.38327C10.0148 3.36691 9.05288 5.57246 9.05816 7.99991Z" fill="#A68B7F"/>
<path d="M25.9998 7.94252C26.0195 10.7287 24.6449 13.3446 22.3379 14.8046C19.8177 16.3971 17.0868 16.3985 14.1452 14.8087C14.131 14.8012 14.1188 14.7902 14.1095 14.7768C14.1003 14.7633 14.0943 14.7477 14.092 14.7312C14.0897 14.7147 14.0912 14.6977 14.0963 14.6815C14.1014 14.6654 14.11 14.6506 14.1215 14.6383C16.0334 12.6457 16.9814 10.4367 16.9656 8.01147C16.9498 5.58351 15.9715 3.38672 14.0306 1.4211C14.0191 1.40881 14.0105 1.39402 14.0054 1.37789C14.0003 1.36177 13.9987 1.34475 14.001 1.32822C14.0033 1.31168 14.0094 1.29607 14.0186 1.28262C14.0279 1.26918 14.0401 1.25827 14.0543 1.25077C16.9749 -0.379585 19.7058 -0.416088 22.2471 1.14127C24.5698 2.56478 25.98 5.16037 25.9998 7.94252Z" fill="#A68B7F"/>
<path d="M12.996 2C13.0227 2 13.0453 2.0098 13.064 2.02942C15.0213 3.93199 16 6.08815 16 8.4979C16.0027 10.9076 15.0267 13.0652 13.072 14.9706C13.0534 14.9902 13.0307 15 13.004 15C12.9773 15 12.9534 14.9902 12.932 14.9706C10.9774 13.068 10 10.9118 10 8.5021C9.99734 6.09236 10.972 3.9348 12.924 2.02942C12.9454 2.0098 12.9693 2 12.996 2Z" fill="#A68B7F"/>
</svg>
