<svg width="60" height="16" viewBox="0 0 60 16" fill="none" xmlns="http://www.w3.org/2000/svg">
<path d="M11.0034 9.47889C11.1702 9.47889 11.2807 9.38987 11.3348 9.21184C12.3357 5.82914 13.0931 3.4153 13.6071 1.97031C14.0625 0.674367 15.1784 0.02226 16.9548 0.0139793C19.2181 -0.00258227 20.7804 0.0201902 21.6415 0.082296C21.7395 0.0900925 21.8307 0.130804 21.8971 0.196366C21.9635 0.261928 22.0002 0.347554 22 0.436294V15.8137C22 15.8631 21.9793 15.9105 21.9425 15.9454C21.9058 15.9804 21.8559 16 21.8038 16H16.806C16.7486 16 16.6936 15.9784 16.653 15.94C16.6124 15.9015 16.5896 15.8494 16.5896 15.795V8.05046C16.5896 6.02582 16.2627 5.98027 15.609 7.91383L13.012 15.6274C12.9353 15.8468 12.7662 15.9648 12.5047 15.9814C12.3785 15.9896 11.8781 15.9938 11.0034 15.9938C10.1242 15.9938 9.62372 15.9896 9.50198 15.9814C9.23597 15.9648 9.06464 15.8468 8.98799 15.6274L6.40452 7.90761C5.75077 5.97405 5.42392 6.0196 5.42392 8.04425L5.41039 15.7888C5.41038 15.8432 5.38757 15.8953 5.34698 15.9337C5.3064 15.9722 5.25136 15.9938 5.19397 15.9938L0.196112 15.9876C0.170354 15.9876 0.144865 15.9828 0.121068 15.9734C0.0972716 15.964 0.07563 15.9503 0.0574176 15.933C0.0392053 15.9157 0.0247975 15.8952 0.0149426 15.8726C0.00508771 15.85 -3.05009e-06 15.8257 1.37096e-09 15.8013L0.0203088 0.42387C0.0200938 0.335127 0.0567895 0.249495 0.123173 0.183932C0.189557 0.11837 0.280766 0.0776639 0.378725 0.0698722C1.23988 0.00776642 2.80212 -0.0129393 5.06547 0.00776263C6.84188 0.0160434 7.95778 0.670226 8.41315 1.97031C8.92263 3.4153 9.67781 5.82914 10.6787 9.21184C10.7283 9.38987 10.8366 9.47889 11.0034 9.47889Z" fill="#A68B7F"/>
<path d="M30.9056 7.25155C31.6495 5.85611 32.4681 4.1294 33.3615 2.07143C33.9689 0.655281 35.045 0.00931677 36.7483 0.00310559C38.2404 -0.0010352 39.541 -0.0010352 40.6501 0.00310559C40.8834 0.00310559 41 0.112836 41 0.332297V15.6926C41 15.8913 40.8922 15.9907 40.6765 15.9907H35.8835C35.7977 15.9907 35.7154 15.9586 35.6547 15.9016C35.5941 15.8445 35.56 15.7671 35.56 15.6863V6.8292C35.56 6.53934 35.472 6.51449 35.2959 6.75466C34.9306 7.26397 34.5301 7.92857 34.0944 8.74845C33.355 10.1398 32.5385 11.8665 31.6451 13.9286C31.0311 15.3447 29.955 15.9907 28.2517 15.9969C26.7596 16.001 25.459 16.001 24.3499 15.9969C24.1167 15.9969 24 15.8872 24 15.6677V0.307457C24 0.108699 24.1078 0.00931336 24.3235 0.00931336H29.1165C29.2023 0.00931336 29.2846 0.0413825 29.3453 0.0984588C29.4059 0.155535 29.44 0.232947 29.44 0.313665V9.1708C29.44 9.46066 29.528 9.48551 29.7041 9.24535C30.0738 8.73189 30.4743 8.06729 30.9056 7.25155Z" fill="#A68B7F"/>
<path d="M50.6845 6.99558C49.7017 6.99558 48.7511 6.30588 47.9289 6.32577C47.8133 6.32577 47.717 6.30809 47.6399 6.27272C45.2419 5.07015 43.7003 3.10272 43.0152 0.370425C42.9638 0.158208 43.043 0.0498958 43.2528 0.0454746C46.7684 -0.00757967 50.3569 -0.0142106 54.0181 0.02558C54.776 0.0388436 55.5725 0.310748 56.3048 0.31738C56.5488 0.31738 56.7351 0.416855 56.8636 0.615808C56.9621 0.779392 57.2768 1.01151 57.8078 1.31215C58.0476 1.4492 58.3174 1.71005 58.6171 2.09469C59.6106 3.35915 60.0688 4.80046 59.9917 6.41862C59.9851 6.57051 59.9219 6.71391 59.8154 6.81893C59.7089 6.92394 59.5673 6.98247 59.42 6.98231C55.1293 7 52.2175 7.00442 50.6845 6.99558Z" fill="#A68B7F"/>
<path d="M48.1333 11.1786V15.8393C48.1333 15.8819 48.1164 15.9228 48.0863 15.9529C48.0562 15.9831 48.0154 16 47.9729 16H43.3208C43.2357 16 43.1541 15.9668 43.094 15.9078C43.0338 15.8487 43 15.7685 43 15.685V7.31499C43 7.10499 43.1048 7 43.3144 7H58.0149C59.1443 7 59.3026 7.39428 58.4898 8.18286L57.1808 9.44929C56.3167 10.285 55.2857 10.7029 54.0879 10.7029H48.6146C48.2937 10.7029 48.1333 10.8614 48.1333 11.1786Z" fill="#A68B7F"/>
</svg>
