<svg width="149" height="21" viewBox="0 0 149 21" fill="none" xmlns="http://www.w3.org/2000/svg">
<path d="M9.56684 4.42307C9.56177 4.46402 9.54136 4.50163 9.50951 4.52873C9.47765 4.55583 9.43659 4.57051 9.39416 4.56998H6.44469C6.41598 4.56997 6.38755 4.56429 6.36111 4.5533C6.33467 4.5423 6.31074 4.52621 6.29077 4.50598C6.27079 4.48575 6.25518 4.46179 6.24483 4.43553C6.23449 4.40927 6.22964 4.38124 6.23056 4.35312C6.24438 3.28046 5.91051 2.6765 5.22898 2.54126C5.02621 2.50083 4.81666 2.50427 4.61676 2.55133C4.41685 2.59838 4.23202 2.68776 4.07678 2.81246C3.92153 2.93716 3.80007 3.09379 3.72194 3.27006C3.64381 3.44633 3.61112 3.63746 3.62645 3.82845C3.6725 4.45805 4.05471 4.89644 4.77308 5.14362C5.00103 5.22207 5.21254 5.34822 5.39475 5.51439C6.06247 6.12534 6.96736 6.64068 8.10938 7.06042C8.35829 7.15221 8.57741 7.3066 8.74486 7.50814C10.1217 9.17309 10.3658 10.9896 9.47704 12.9577C8.21989 15.742 3.32253 15.2313 1.45753 14.056C0.5043 13.4591 0.0184665 12.2768 4.66736e-05 10.5093C-0.000882265 10.4392 0.0120638 10.3696 0.0381168 10.3047C0.0641698 10.2398 0.102803 10.1808 0.151737 10.1312C0.200671 10.0817 0.25892 10.0425 0.323031 10.0161C0.387143 9.98975 0.455822 9.97665 0.525018 9.97759L3.28108 10.0056C3.39529 10.0074 3.50421 10.0546 3.58433 10.1371C3.66445 10.2196 3.70937 10.3306 3.70935 10.4463C3.70245 11.7195 4.41391 12.8948 5.86447 12.2442C6.03198 12.1693 6.1731 12.0486 6.27591 11.8924C6.37871 11.7361 6.44018 11.5488 6.45508 11.3464C6.46999 11.1439 6.43791 10.9323 6.36155 10.7293C6.2852 10.5264 6.16683 10.3381 6.01643 10.1805C5.03558 9.16843 3.73928 8.3103 2.12755 7.60607C1.94902 7.53195 1.78355 7.43045 1.63713 7.30526C-0.131177 5.80354 -0.437418 3.92639 0.718425 1.6738C0.839827 1.43671 1.02736 1.24191 1.2572 1.11415C3.6748 -0.215013 5.93124 -0.354924 8.0265 0.694417C9.32049 1.33801 9.83393 2.5809 9.56684 4.42307Z" fill="#A68B7F"/>
<path d="M98.9451 7.22654C99.0938 9.07285 98.9405 10.9025 98.485 12.7154C98.3998 13.0511 98.2437 13.3631 98.0279 13.6291C97.8122 13.8951 97.5421 14.1085 97.237 14.254C95.1269 15.2511 92.94 15.2487 90.6765 14.2468C88.7941 13.4095 88.9545 8.63632 89.0521 6.51092C89.145 4.49763 89.2706 3.25483 89.4286 2.78252C90.3628 -0.0155714 93.7651 -0.409163 96.1843 0.320773C98.1317 0.902813 99.0683 2.37938 98.9939 4.75048C98.9921 4.81 98.9671 4.86646 98.9241 4.90788C98.8812 4.94929 98.8236 4.97241 98.7638 4.97232H95.7171C95.6927 4.97234 95.6686 4.9673 95.6461 4.95751C95.6236 4.94771 95.6034 4.93337 95.5865 4.91532C95.5695 4.89728 95.5563 4.87592 95.5476 4.85251C95.539 4.8291 95.535 4.80413 95.5359 4.77911C95.5917 3.29538 94.9503 2.57499 93.6117 2.61792C93.3478 2.6272 93.0977 2.74137 92.9143 2.93631C92.7309 3.13125 92.6285 3.39172 92.6286 3.66273V11.1052C92.6286 11.1907 92.6403 11.275 92.6635 11.3557C92.9423 12.41 93.6767 12.6748 94.8666 12.15C95.8426 11.7207 95.7869 10.2679 95.6404 9.28038C95.6241 9.16297 95.5731 9.05377 95.4944 8.96788C95.4157 8.88198 95.3132 8.82364 95.2012 8.80091L94.7063 8.69357C94.4774 8.6434 94.2747 8.50816 94.1372 8.31386C93.9997 8.11955 93.937 7.87991 93.9612 7.64102C93.9854 7.40214 94.0949 7.18088 94.2684 7.01982C94.442 6.85875 94.6675 6.76926 94.9014 6.76854H98.464C98.5858 6.76821 98.7032 6.81529 98.7924 6.90029C98.8817 6.98529 98.9363 7.10188 98.9451 7.22654Z" fill="#A68B7F"/>
<path d="M114.649 11.2263V14.3873C114.649 14.4678 114.634 14.5474 114.604 14.6218C114.574 14.6961 114.53 14.7636 114.475 14.8205C114.42 14.8774 114.354 14.9226 114.282 14.9534C114.21 14.9842 114.132 15 114.054 15H112.46C112.338 15 112.221 14.9501 112.135 14.8613C112.048 14.7725 112 14.6521 112 14.5266V0.545872C112 0.423842 112.045 0.306477 112.127 0.218265C112.209 0.130052 112.321 0.0778059 112.439 0.0724222C115.636 -0.0668276 119.461 -0.282665 121.204 2.39789C122.001 3.61865 122.2 5.0947 121.799 6.82604C121.042 10.0706 118.359 10.5231 115.129 10.7041C115 10.7095 114.878 10.7669 114.788 10.8643C114.699 10.9616 114.649 11.0914 114.649 11.2263ZM114.433 3.31694L114.5 7.48051C114.504 7.65472 114.574 7.82045 114.696 7.9417C114.817 8.06294 114.98 8.1299 115.149 8.12802L116.703 8.10713C117.054 8.10145 117.401 8.02757 117.723 7.88971C118.045 7.75185 118.337 7.55273 118.581 7.30373C118.825 7.05474 119.017 6.76078 119.146 6.43867C119.275 6.11656 119.338 5.77263 119.332 5.42658V5.20378C119.32 4.50664 119.028 3.84309 118.52 3.35879C118.012 2.87449 117.329 2.60903 116.622 2.62069L115.068 2.64158C114.983 2.64248 114.899 2.66072 114.821 2.69524C114.743 2.72975 114.673 2.77987 114.614 2.84268C114.555 2.90549 114.508 2.97974 114.477 3.06115C114.446 3.14256 114.431 3.2295 114.433 3.31694Z" fill="#A68B7F"/>
<path d="M52.3211 3.99031C52.1699 2.82383 51.1799 1.84939 50.1831 2.582C50.0518 2.67962 49.9461 2.80927 49.8737 2.96184C49.8012 3.1144 49.7637 3.28619 49.7637 3.46514C49.7637 3.64409 49.8012 3.82586 49.8737 3.99768C49.9461 4.1695 50.0518 4.32722 50.1831 4.45975C51.1318 5.41285 52.2707 6.19999 53.5998 6.82116C55.6622 7.78374 56.3955 9.52872 55.7997 12.0561C54.9266 15.7405 49.9081 15.3991 47.5845 14.0832C47.3459 13.9483 47.1465 13.7493 47.007 13.5071C46.535 12.7152 46.2004 11.6175 46.0033 10.2139C45.9965 10.1629 46.0002 10.1109 46.0143 10.0615C46.0284 10.012 46.0525 9.96629 46.0851 9.92725C46.1176 9.88822 46.1578 9.8568 46.2029 9.8351C46.2481 9.81339 46.2972 9.8019 46.3471 9.80138H49.0832C49.2651 9.8007 49.4407 9.87112 49.5756 9.99879C49.7104 10.1265 49.7947 10.3021 49.8119 10.4913C49.8256 10.6715 49.8256 10.9157 49.8119 11.2239C49.7706 12.3762 50.74 12.5611 51.613 12.4615C51.7331 12.4483 51.8476 12.405 51.9461 12.3354C52.0446 12.2658 52.1239 12.1722 52.1768 12.0632C52.8848 10.6336 52.2249 9.51687 50.7537 8.90518C49.5117 8.38832 48.2101 7.42811 46.8489 6.02454C46.6684 5.83789 46.536 5.60805 46.4639 5.35595C45.2265 1.08122 48.6294 -0.291526 52.1286 0.0498826C54.3881 0.268005 55.5774 1.49376 55.6966 3.72714C55.7012 3.82256 55.6871 3.91796 55.655 4.00754C55.6229 4.09712 55.5735 4.17901 55.5098 4.24821C55.4461 4.31741 55.3695 4.37248 55.2846 4.41007C55.1997 4.44766 55.1083 4.46698 55.016 4.46686H52.8505C52.7196 4.46646 52.5935 4.41777 52.4959 4.32999C52.3984 4.2422 52.3362 4.12138 52.3211 3.99031Z" fill="#A68B7F"/>
<path d="M18.5578 0.000766626C19.596 0.00536634 20.4664 0.0283639 21.1691 0.0697613C21.2969 0.0760593 21.419 0.127284 21.5154 0.215036C21.6118 0.302788 21.6767 0.42186 21.6995 0.552732L23.9979 13.7792C24.0018 13.8063 24.0002 13.8339 23.9932 13.8602C23.9861 13.8865 23.9738 13.9109 23.9571 13.9318C23.9404 13.9527 23.9196 13.9696 23.8962 13.9813C23.8727 13.9931 23.8472 13.9994 23.8212 14H20.5843C20.5187 14.0005 20.455 13.9764 20.405 13.932C20.355 13.8876 20.3221 13.826 20.3123 13.7585L18.7482 2.09823C18.7443 2.08884 18.7397 2.07962 18.7346 2.07064C18.6802 2.01084 18.619 1.98094 18.551 1.98094C18.4785 1.98094 18.4173 2.01084 18.3674 2.07064C18.36 2.07941 18.3532 2.08863 18.347 2.09823L16.6878 13.7447C16.6765 13.8109 16.6429 13.8709 16.5931 13.9139C16.5432 13.9569 16.4804 13.98 16.4158 13.9793L13.1789 13.9517C13.1528 13.9512 13.1272 13.9448 13.1038 13.9331C13.0803 13.9213 13.0596 13.9044 13.0428 13.8836C13.0261 13.8627 13.0139 13.8383 13.0068 13.812C12.9998 13.7856 12.9982 13.758 13.0021 13.7309L15.4093 0.525133C15.4338 0.39442 15.5003 0.276084 15.5979 0.189569C15.6956 0.103054 15.8185 0.0535062 15.9465 0.0490634C16.6492 0.0122657 17.5196 -0.00383309 18.5578 0.000766626Z" fill="#A68B7F"/>
<path d="M36.256 0.013807H41.9315C41.9497 0.013807 41.9671 0.0210801 41.9799 0.0340264C41.9928 0.0469727 42 0.0645306 42 0.0828394V13.9171C42 13.9355 41.9928 13.953 41.9799 13.966C41.9671 13.9789 41.9497 13.9862 41.9315 13.9862H38.7617C38.7436 13.9862 38.7262 13.9789 38.7133 13.966C38.7005 13.953 38.6933 13.9355 38.6933 13.9171V2.22288C38.6942 2.21381 38.6933 2.20466 38.6907 2.19593C38.6881 2.18721 38.6838 2.17909 38.6781 2.17204C38.6723 2.16499 38.6653 2.15915 38.6573 2.15484C38.6494 2.15053 38.6407 2.14785 38.6317 2.14694C38.6227 2.14603 38.6136 2.14692 38.6049 2.14955C38.5963 2.15219 38.5882 2.15651 38.5813 2.16228C38.5743 2.16805 38.5685 2.17515 38.5642 2.18318C38.5599 2.19121 38.5573 2.20001 38.5564 2.20907L36.0917 13.9448C36.0885 13.9606 36.0799 13.9748 36.0674 13.9849C36.0549 13.995 36.0393 14.0003 36.0233 14H32.7782C32.7634 13.9988 32.7493 13.9927 32.7382 13.9828C32.7271 13.9728 32.7195 13.9595 32.7166 13.9448L30.6148 1.93984C30.6132 1.93069 30.6097 1.92196 30.6047 1.91418C30.5996 1.90641 30.593 1.89974 30.5854 1.89458C30.5777 1.88943 30.5691 1.88588 30.56 1.88417C30.5509 1.88246 30.5416 1.88261 30.5326 1.88461L30.3957 1.90533C30.38 1.90855 30.3659 1.91723 30.3559 1.92984C30.3459 1.94245 30.3406 1.95821 30.3409 1.97436V13.9102C30.3409 13.9286 30.3337 13.9461 30.3209 13.9591C30.308 13.972 30.2906 13.9793 30.2725 13.9793H27.0685C27.0503 13.9793 27.0329 13.972 27.0201 13.9591C27.0072 13.9461 27 13.9286 27 13.9102V0.069035C27 0.0507262 27.0072 0.0331657 27.0201 0.0202194C27.0329 0.00727309 27.0503 0 27.0685 0H32.5454C32.5602 0.00120664 32.5743 0.00725036 32.5854 0.0172147C32.5965 0.0271789 32.6041 0.040523 32.607 0.055228L34.4487 10.5897C34.4487 10.608 34.4559 10.6256 34.4687 10.6385C34.4815 10.6515 34.4989 10.6588 34.5171 10.6588C34.5353 10.6588 34.5527 10.6515 34.5655 10.6385C34.5784 10.6256 34.5856 10.608 34.5856 10.5897L36.1876 0.069035C36.1908 0.0532073 36.1994 0.0390111 36.2119 0.0289202C36.2244 0.0188292 36.24 0.0134813 36.256 0.013807Z" fill="#A68B7F"/>
<path d="M64.9992 12.5629C65.9143 12.5629 66.379 12.1132 66.3933 11.2137C66.4553 7.59188 66.4648 4.0353 66.4219 0.544004C66.4209 0.4729 66.4337 0.402312 66.4595 0.336345C66.4853 0.270377 66.5237 0.210342 66.5722 0.159728C66.6208 0.109113 66.6786 0.0689304 66.7424 0.0415098C66.8062 0.0140892 66.8746 -2.01172e-05 66.9438 2.15282e-08H69.496C69.6268 2.15282e-08 69.7523 0.0534932 69.8448 0.148712C69.9373 0.243932 69.9893 0.373075 69.9893 0.507735C70.0036 4.19246 70.0036 7.58704 69.9893 10.6915C69.975 13.7307 67.9017 15 64.9992 15C62.1039 15 60.0306 13.7307 60.0163 10.6915C59.9973 7.58704 59.9949 4.19246 60.0092 0.507735C60.0092 0.373075 60.0612 0.243932 60.1537 0.148712C60.2462 0.0534932 60.3716 2.15282e-08 60.5025 2.15282e-08H63.0547C63.1238 -2.01172e-05 63.1923 0.0140892 63.2561 0.0415098C63.3199 0.0689304 63.3777 0.109113 63.4263 0.159728C63.4748 0.210342 63.5131 0.270377 63.5389 0.336345C63.5647 0.402312 63.5775 0.4729 63.5766 0.544004C63.5337 4.0353 63.5432 7.59188 63.6052 11.2137C63.6242 12.1132 64.0889 12.5629 64.9992 12.5629Z" fill="#A68B7F"/>
<path d="M80.9597 6.75402C81.3957 8.28615 81.8815 9.62852 82.4171 10.7811C82.4255 10.8175 82.4483 10.849 82.4803 10.8688C82.5123 10.8885 82.5509 10.8949 82.5877 10.8865C82.6245 10.8782 82.6563 10.8557 82.6763 10.824C82.6963 10.7924 82.7028 10.7542 82.6943 10.7179V0.414659C82.6943 0.304684 82.7385 0.199213 82.8172 0.12145C82.8958 0.0436863 83.0025 0 83.1137 0H85.5166C85.6448 0 85.7678 0.0503498 85.8584 0.139976C85.9491 0.229601 86 0.351162 86 0.477912V13.508C86 13.5671 85.988 13.6256 85.9648 13.6802C85.9416 13.7347 85.9076 13.7843 85.8647 13.8261C85.8218 13.8679 85.7708 13.901 85.7148 13.9236C85.6587 13.9462 85.5986 13.9578 85.5379 13.9578H81.4858C81.2845 13.9585 81.0891 13.8921 80.9315 13.7695C80.774 13.647 80.6636 13.4755 80.6185 13.2831C80.0877 11.081 79.5616 9.06861 79.0403 7.24599C78.6043 5.71386 78.1161 4.37383 77.5758 3.2259C77.562 3.19761 77.539 3.17471 77.5105 3.16085C77.482 3.14699 77.4496 3.14298 77.4185 3.14945C77.3874 3.15592 77.3594 3.17251 77.3389 3.19655C77.3185 3.2206 77.3068 3.25073 77.3057 3.28213V13.5853C77.3057 13.6953 77.2615 13.8008 77.1828 13.8785C77.1042 13.9563 76.9975 14 76.8863 14H74.4834C74.3552 14 74.2322 13.9496 74.1416 13.86C74.0509 13.7704 74 13.6488 74 13.5221V0.491968C74 0.372674 74.0487 0.258266 74.1353 0.173912C74.222 0.0895582 74.3395 0.0421696 74.4621 0.0421696H78.5142C78.7143 0.0430787 78.908 0.110185 79.0641 0.232631C79.2203 0.355078 79.3296 0.525697 79.3744 0.716868C79.9052 2.91901 80.4337 4.93139 80.9597 6.75402Z" fill="#A68B7F"/>
<path d="M134.99 9.00907C134.994 11.3289 134.988 13.1428 134.969 14.4508C134.966 14.5644 134.919 14.6722 134.839 14.7513C134.76 14.8305 134.653 14.8747 134.541 14.8747H132.639C132.54 14.8747 132.445 14.8351 132.375 14.7645C132.305 14.694 132.266 14.5984 132.266 14.4987V14.1158C132.267 14.0661 132.254 14.0172 132.229 13.9742C132.204 13.9312 132.168 13.8959 132.125 13.872C132.081 13.8481 132.032 13.8365 131.983 13.8385C131.934 13.8405 131.886 13.856 131.845 13.8834C129.331 15.4785 127.037 15.3646 124.963 13.5416C123.65 12.384 122.995 10.8663 123 8.98856C123.005 7.11084 123.666 5.59772 124.984 4.44921C127.062 2.63074 129.356 2.52363 131.865 4.1279C131.906 4.15525 131.954 4.17076 132.003 4.17277C132.053 4.17478 132.102 4.16321 132.145 4.13931C132.188 4.11541 132.224 4.08007 132.249 4.03711C132.274 3.99414 132.287 3.94517 132.286 3.89546V3.51263C132.288 3.4141 132.328 3.32021 132.398 3.25116C132.468 3.18212 132.562 3.14345 132.66 3.14346L134.562 3.1503C134.673 3.15027 134.78 3.1945 134.86 3.27361C134.94 3.35273 134.986 3.46052 134.99 3.57415C135.003 4.88218 135.003 6.69382 134.99 9.00907ZM132.524 9.02274C132.524 8.54872 132.431 8.07934 132.251 7.6414C132.071 7.20347 131.806 6.80555 131.473 6.47036C131.14 6.13518 130.745 5.8693 130.31 5.6879C129.875 5.5065 129.408 5.41314 128.937 5.41314C127.986 5.41314 127.074 5.79343 126.401 6.47036C125.728 7.1473 125.35 8.06541 125.35 9.02274C125.35 9.98006 125.728 10.8982 126.401 11.5751C127.074 12.252 127.986 12.6323 128.937 12.6323C129.408 12.6323 129.875 12.539 130.31 12.3576C130.745 12.1762 131.14 11.9103 131.473 11.5751C131.806 11.2399 132.071 10.842 132.251 10.4041C132.431 9.96614 132.524 9.49676 132.524 9.02274Z" fill="#A68B7F"/>
<path d="M143.27 10.7716L145.964 4.21783C146.112 3.85768 146.363 3.54962 146.685 3.33278C147.007 3.11594 147.386 3.00011 147.774 3H148.28C148.398 2.99997 148.515 3.02939 148.619 3.08567C148.723 3.14196 148.812 3.22339 148.878 3.32281C148.944 3.42222 148.984 3.53658 148.996 3.65582C149.008 3.77506 148.991 3.89553 148.946 4.00665L142.204 20.4228C142.136 20.5931 142.017 20.7391 141.865 20.8419C141.712 20.9448 141.532 20.9998 141.348 21H139.84C139.765 21.0004 139.691 20.982 139.624 20.9463C139.558 20.9106 139.502 20.8587 139.46 20.7953C139.419 20.732 139.393 20.659 139.386 20.583C139.379 20.5069 139.39 20.4301 139.419 20.3594C139.994 18.975 140.473 17.8205 140.857 16.896C141.587 15.1361 141.727 14.1224 140.766 12.2429C140.41 11.5436 139.166 8.70434 137.034 3.72507C137.007 3.66188 136.996 3.59304 137.001 3.52468C137.007 3.45633 137.03 3.39061 137.066 3.33341C137.103 3.27621 137.153 3.22932 137.213 3.19693C137.272 3.16454 137.338 3.14767 137.405 3.14783H139.089C139.266 3.14803 139.44 3.20007 139.588 3.29759C139.736 3.39511 139.853 3.53387 139.924 3.69691L142.997 10.7786C143.008 10.8058 143.028 10.8289 143.053 10.8448C143.078 10.8608 143.107 10.8689 143.136 10.8682C143.165 10.8674 143.194 10.8578 143.218 10.8406C143.242 10.8234 143.26 10.7993 143.27 10.7716Z" fill="#A68B7F"/>
</svg>
