<svg width="49" height="16" viewBox="0 0 49 16" fill="none" xmlns="http://www.w3.org/2000/svg">
<path d="M30.1974 3.77736C29.4655 4.63055 29.7337 5.35044 31.0022 5.93701C32.0468 6.42049 33.0417 7.05506 33.9868 7.84071C36.2307 9.71241 35.3459 13.3172 33.1021 14.6609C30.4266 16.2642 27.4313 16.4278 24.1162 15.1515C24.0239 15.116 23.9865 15.0484 24.0043 14.9489L24.6599 11.8721C24.6812 11.7654 24.738 11.7352 24.8304 11.7814C26.6816 12.6666 28.4209 12.9083 30.0482 12.5066C30.8476 12.3147 31.1728 11.7619 31.0235 10.8482C30.9951 10.6669 30.9063 10.5229 30.7571 10.4163C29.35 9.36047 27.8737 8.87521 26.6105 7.55809C24.7345 5.6064 25.7844 2.4709 27.7617 1.23377C30.0428 -0.19178 32.7628 -0.381976 35.9215 0.66319C35.9855 0.68452 36.0103 0.727183 35.9961 0.791173L35.3672 3.79869C35.3459 3.89468 35.2891 3.92312 35.1967 3.88401C33.6439 3.21567 32.1197 3.09124 30.6238 3.51073C30.459 3.55869 30.3113 3.65102 30.1974 3.77736Z" fill="#A68B7F"/>
<path d="M10.5077 9.38015C10.6019 9.81404 10.7323 9.82437 10.8989 9.41115L14.7079 0.129132C14.7369 0.0533746 14.7948 0.0137684 14.8818 0.0103249L18.9244 0C18.9367 6.39781e-05 18.9487 0.00295881 18.9596 0.0084412C18.9705 0.0139236 18.9798 0.0218229 18.9867 0.0314712C18.9937 0.0411196 18.998 0.0522309 18.9995 0.063841C19.0009 0.0754511 18.9994 0.0872143 18.995 0.0981338L12.6268 14.7469C12.558 14.9087 12.4312 14.9897 12.2465 14.9897L8.481 15C8.41139 15.0006 8.34352 14.9784 8.28831 14.9372C8.23311 14.896 8.19379 14.838 8.17672 14.7727L4.7916 2.43285C4.73002 2.21935 4.59418 2.06266 4.38409 1.9628C3.31186 1.4566 2.32657 1.08298 1.42822 0.841936C-0.513384 0.321964 -0.475337 0.0550895 1.54233 0.0413154L6.89984 0.0206577C7.33055 0.0187637 7.74882 0.157925 8.08429 0.414738C8.41975 0.67155 8.65195 1.03034 8.74183 1.43078L10.5077 9.38015Z" fill="#A68B7F"/>
<path d="M20.6533 15H17.2018C17.1718 14.9998 17.1421 14.993 17.115 14.9801C17.0879 14.9672 17.064 14.9484 17.0451 14.9251C17.0262 14.9019 17.0127 14.8747 17.0056 14.8456C16.9986 14.8166 16.9981 14.7863 17.0043 14.757L20.1439 0.160277C20.1536 0.11425 20.1792 0.07304 20.2162 0.0437788C20.2532 0.0145175 20.2994 -0.000952356 20.3467 4.54157e-05H23.7982C23.8282 0.000176233 23.8579 0.00696019 23.885 0.0199049C23.9121 0.0328495 23.936 0.0516285 23.9549 0.0748851C23.9738 0.0981416 23.9873 0.125289 23.9944 0.154362C24.0014 0.183436 24.0019 0.213709 23.9957 0.24298L20.856 14.8397C20.8464 14.8857 20.8208 14.927 20.7838 14.9562C20.7468 14.9855 20.7006 15.001 20.6533 15Z" fill="#A68B7F"/>
<path d="M39.9581 13.5958C39.7661 13.5958 39.663 13.6943 39.6487 13.8915C39.6167 14.3844 39.4603 14.9229 39.1794 15.5071C39.023 15.8284 38.7706 15.989 38.4221 15.989H35.4196C35.0321 15.989 34.913 15.8047 35.0623 15.4359L40.822 1.2022C40.9224 0.956868 41.0864 0.744473 41.296 0.588066C41.5057 0.431658 41.7531 0.337216 42.0113 0.314987L45.4885 0.00281652C45.7196 -0.0190899 45.8582 0.0867922 45.9044 0.320461L48.9816 15.4907C49.0527 15.8302 48.9176 16 48.5763 16H45.8991C45.5471 16 45.3356 15.8229 45.2645 15.4688L44.9445 13.9079C44.9054 13.6998 44.7792 13.5958 44.5658 13.5958H39.9581ZM44.0272 10.37C44.2227 10.37 44.301 10.2715 44.2619 10.0743L43.2752 5.2056C43.1721 4.69445 43.0335 4.68349 42.8593 5.17274L41.126 10.0305C41.0442 10.2569 41.1207 10.37 41.3553 10.37H44.0272Z" fill="#A68B7F"/>
</svg>
